M48
; DRILL file {KiCad 7.0.5-7.0.5~ubuntu22.04.1} date Sat 17 Jun 2023 09:55:33 PM CDT
; FORMAT={-:-/ absolute / inch / decimal}
; #@! TF.CreationDate,2023-06-17T21:55:33-05:00
; #@! TF.GenerationSoftware,Kicad,Pcbnew,7.0.5-7.0.5~ubuntu22.04.1
; #@! TF.FileFunction,Plated,1,2,PTH
FMAT,2
INCH
; #@! TA.AperFunction,Plated,PTH,ComponentDrill
T1C0.0295
; #@! TA.AperFunction,Plated,PTH,ComponentDrill
T2C0.0315
; #@! TA.AperFunction,Plated,PTH,ComponentDrill
T3C0.0394
%
G90
G05
T1
X3.8Y-3.4963
X3.8Y-3.575
X3.8Y-3.7713
X3.8Y-3.85
X4.1Y-3.6213
X4.1Y-3.7
X4.1Y-3.7787
X4.3Y-3.0638
X4.3Y-3.1425
X4.3Y-3.2213
X4.3Y-3.3
X4.6Y-3.5425
X4.6Y-3.6213
X4.6Y-3.7
X4.6Y-3.7787
X4.6Y-3.8575
X4.9Y-3.6713
X4.9Y-3.75
X4.9Y-3.8287
X5.4Y-3.6425
X5.4Y-3.7213
X5.4Y-3.8
X5.4Y-3.8787
X5.4Y-3.9575
X5.65Y-3.7213
X5.65Y-3.8
T2
X4.0Y-3.0638
X4.0Y-3.1425
X4.0Y-3.2213
X4.0Y-3.3
T3
X4.3Y-3.6
X4.3Y-3.7
X4.3Y-3.8
X4.8Y-3.0
X4.8Y-3.1
X4.8Y-3.2
X4.8Y-3.3
X5.1Y-3.65
X5.1Y-3.75
X5.1Y-3.85
X5.2Y-2.85
X5.2Y-2.95
X5.2Y-3.05
X5.2Y-3.15
X5.2Y-3.25
X5.2Y-3.35
T0
M30
