%TF.GenerationSoftware,KiCad,Pcbnew,7.0.5-7.0.5~ubuntu22.04.1*%
%TF.CreationDate,2023-06-17T21:55:33-05:00*%
%TF.ProjectId,power-sensor-breakout,706f7765-722d-4736-956e-736f722d6272,rev?*%
%TF.SameCoordinates,Original*%
%TF.FileFunction,Soldermask,Bot*%
%TF.FilePolarity,Negative*%
%FSLAX46Y46*%
G04 Gerber Fmt 4.6, Leading zero omitted, Abs format (unit mm)*
G04 Created by KiCad (PCBNEW 7.0.5-7.0.5~ubuntu22.04.1) date 2023-06-17 21:55:33*
%MOMM*%
%LPD*%
G01*
G04 APERTURE LIST*
G04 Aperture macros list*
%AMRoundRect*
0 Rectangle with rounded corners*
0 $1 Rounding radius*
0 $2 $3 $4 $5 $6 $7 $8 $9 X,Y pos of 4 corners*
0 Add a 4 corners polygon primitive as box body*
4,1,4,$2,$3,$4,$5,$6,$7,$8,$9,$2,$3,0*
0 Add four circle primitives for the rounded corners*
1,1,$1+$1,$2,$3*
1,1,$1+$1,$4,$5*
1,1,$1+$1,$6,$7*
1,1,$1+$1,$8,$9*
0 Add four rect primitives between the rounded corners*
20,1,$1+$1,$2,$3,$4,$5,0*
20,1,$1+$1,$4,$5,$6,$7,0*
20,1,$1+$1,$6,$7,$8,$9,0*
20,1,$1+$1,$8,$9,$2,$3,0*%
G04 Aperture macros list end*
%ADD10R,1.700000X1.700000*%
%ADD11O,1.700000X1.700000*%
%ADD12C,3.200000*%
%ADD13O,1.750000X1.200000*%
%ADD14RoundRect,0.250000X-0.625000X0.350000X-0.625000X-0.350000X0.625000X-0.350000X0.625000X0.350000X0*%
%ADD15R,1.350000X1.350000*%
%ADD16O,1.350000X1.350000*%
%ADD17RoundRect,0.250000X0.625000X-0.350000X0.625000X0.350000X-0.625000X0.350000X-0.625000X-0.350000X0*%
G04 APERTURE END LIST*
D10*
%TO.C,J13*%
X121920000Y-83820000D03*
D11*
X121920000Y-81280000D03*
X121920000Y-78740000D03*
X121920000Y-76200000D03*
%TD*%
D12*
%TO.C,H3*%
X96520000Y-104140000D03*
%TD*%
%TO.C,H4*%
X142240000Y-104140000D03*
%TD*%
%TO.C,H2*%
X142240000Y-73660000D03*
%TD*%
%TO.C,H1*%
X96520000Y-73660000D03*
%TD*%
D13*
%TO.C,J2*%
X96520000Y-97790000D03*
D14*
X96520000Y-95790000D03*
%TD*%
D11*
%TO.C,J4*%
X109220000Y-96520000D03*
X109220000Y-93980000D03*
D10*
X109220000Y-91440000D03*
%TD*%
D13*
%TO.C,J3*%
X104140000Y-95980000D03*
X104140000Y-93980000D03*
D14*
X104140000Y-91980000D03*
%TD*%
%TO.C,J1*%
X96520000Y-88805000D03*
D13*
X96520000Y-90805000D03*
%TD*%
%TO.C,J5*%
X116840000Y-97980000D03*
X116840000Y-95980000D03*
X116840000Y-93980000D03*
X116840000Y-91980000D03*
D14*
X116840000Y-89980000D03*
%TD*%
D13*
%TO.C,J8*%
X137160000Y-100520000D03*
X137160000Y-98520000D03*
X137160000Y-96520000D03*
X137160000Y-94520000D03*
D14*
X137160000Y-92520000D03*
%TD*%
D10*
%TO.C,J7*%
X129540000Y-92710000D03*
D11*
X129540000Y-95250000D03*
X129540000Y-97790000D03*
%TD*%
D13*
%TO.C,J6*%
X124460000Y-97250000D03*
X124460000Y-95250000D03*
D14*
X124460000Y-93250000D03*
%TD*%
D13*
%TO.C,J9*%
X143510000Y-96520000D03*
D14*
X143510000Y-94520000D03*
%TD*%
D15*
%TO.C,J12*%
X101600000Y-83820000D03*
D16*
X101600000Y-81820000D03*
X101600000Y-79820000D03*
X101600000Y-77820000D03*
%TD*%
D17*
%TO.C,J11*%
X109220000Y-83820000D03*
D13*
X109220000Y-81820000D03*
X109220000Y-79820000D03*
X109220000Y-77820000D03*
%TD*%
D11*
%TO.C,J10*%
X132080000Y-72390000D03*
X132080000Y-74930000D03*
X132080000Y-77470000D03*
X132080000Y-80010000D03*
X132080000Y-82550000D03*
D10*
X132080000Y-85090000D03*
%TD*%
M02*
