%TF.GenerationSoftware,KiCad,Pcbnew,7.0.5-7.0.5~ubuntu22.04.1*%
%TF.CreationDate,2023-06-17T21:55:33-05:00*%
%TF.ProjectId,power-sensor-breakout,706f7765-722d-4736-956e-736f722d6272,rev?*%
%TF.SameCoordinates,Original*%
%TF.FileFunction,Copper,L2,Bot*%
%TF.FilePolarity,Positive*%
%FSLAX46Y46*%
G04 Gerber Fmt 4.6, Leading zero omitted, Abs format (unit mm)*
G04 Created by KiCad (PCBNEW 7.0.5-7.0.5~ubuntu22.04.1) date 2023-06-17 21:55:33*
%MOMM*%
%LPD*%
G01*
G04 APERTURE LIST*
G04 Aperture macros list*
%AMRoundRect*
0 Rectangle with rounded corners*
0 $1 Rounding radius*
0 $2 $3 $4 $5 $6 $7 $8 $9 X,Y pos of 4 corners*
0 Add a 4 corners polygon primitive as box body*
4,1,4,$2,$3,$4,$5,$6,$7,$8,$9,$2,$3,0*
0 Add four circle primitives for the rounded corners*
1,1,$1+$1,$2,$3*
1,1,$1+$1,$4,$5*
1,1,$1+$1,$6,$7*
1,1,$1+$1,$8,$9*
0 Add four rect primitives between the rounded corners*
20,1,$1+$1,$2,$3,$4,$5,0*
20,1,$1+$1,$4,$5,$6,$7,0*
20,1,$1+$1,$6,$7,$8,$9,0*
20,1,$1+$1,$8,$9,$2,$3,0*%
G04 Aperture macros list end*
%ADD10C,0.381000*%
%TA.AperFunction,ComponentPad*%
%ADD11R,1.700000X1.700000*%
%TD*%
%TA.AperFunction,ComponentPad*%
%ADD12O,1.700000X1.700000*%
%TD*%
%TA.AperFunction,ComponentPad*%
%ADD13O,1.750000X1.200000*%
%TD*%
%TA.AperFunction,ComponentPad*%
%ADD14RoundRect,0.250000X-0.625000X0.350000X-0.625000X-0.350000X0.625000X-0.350000X0.625000X0.350000X0*%
%TD*%
%TA.AperFunction,ComponentPad*%
%ADD15R,1.350000X1.350000*%
%TD*%
%TA.AperFunction,ComponentPad*%
%ADD16O,1.350000X1.350000*%
%TD*%
%TA.AperFunction,ComponentPad*%
%ADD17RoundRect,0.250000X0.625000X-0.350000X0.625000X0.350000X-0.625000X0.350000X-0.625000X-0.350000X0*%
%TD*%
%TA.AperFunction,Conductor*%
%ADD18C,1.016000*%
%TD*%
%TA.AperFunction,Conductor*%
%ADD19C,0.254000*%
%TD*%
%TA.AperFunction,Conductor*%
%ADD20C,0.508000*%
%TD*%
G04 APERTURE END LIST*
D10*
G36*
X105143254Y-104322652D02*
G01*
X105178155Y-104357553D01*
X105222838Y-104446917D01*
X105222838Y-104828690D01*
X105178155Y-104918055D01*
X105143255Y-104952955D01*
X105053891Y-104997638D01*
X104907976Y-104997638D01*
X104818611Y-104952955D01*
X104783712Y-104918055D01*
X104739029Y-104828689D01*
X104739029Y-104446917D01*
X104783710Y-104357554D01*
X104818611Y-104322653D01*
X104907976Y-104277971D01*
X105053891Y-104277971D01*
X105143254Y-104322652D01*
G37*
G36*
X108023014Y-104779793D02*
G01*
X108053124Y-104840012D01*
X108053123Y-104907308D01*
X108023014Y-104967528D01*
X107962796Y-104997638D01*
X107659643Y-104997638D01*
X107647934Y-104991783D01*
X107647934Y-104751623D01*
X107652608Y-104749685D01*
X107962796Y-104749685D01*
X108023014Y-104779793D01*
G37*
G36*
X109438157Y-104308079D02*
G01*
X109468267Y-104368298D01*
X109468267Y-104405431D01*
X109083033Y-104328384D01*
X109093185Y-104308080D01*
X109153405Y-104277971D01*
X109377939Y-104277971D01*
X109438157Y-104308079D01*
G37*
G36*
X111905458Y-104283825D02*
G01*
X111905458Y-104991783D01*
X111893749Y-104997638D01*
X111669215Y-104997638D01*
X111579850Y-104952955D01*
X111544951Y-104918055D01*
X111500268Y-104828689D01*
X111500268Y-104446917D01*
X111544949Y-104357554D01*
X111579850Y-104322653D01*
X111669215Y-104277971D01*
X111893749Y-104277971D01*
X111905458Y-104283825D01*
G37*
G36*
X115678208Y-104322652D02*
G01*
X115713109Y-104357553D01*
X115757792Y-104446917D01*
X115757792Y-104828690D01*
X115713109Y-104918055D01*
X115678209Y-104952955D01*
X115588845Y-104997638D01*
X115442930Y-104997638D01*
X115353565Y-104952955D01*
X115318666Y-104918055D01*
X115273982Y-104828689D01*
X115273983Y-104446917D01*
X115318664Y-104357554D01*
X115353565Y-104322653D01*
X115442930Y-104277971D01*
X115588845Y-104277971D01*
X115678208Y-104322652D01*
G37*
G36*
X119973111Y-104308079D02*
G01*
X120003221Y-104368298D01*
X120003221Y-104405431D01*
X119617987Y-104328384D01*
X119628139Y-104308080D01*
X119688359Y-104277971D01*
X119912893Y-104277971D01*
X119973111Y-104308079D01*
G37*
G36*
X126262636Y-104308079D02*
G01*
X126292746Y-104368298D01*
X126292746Y-104405431D01*
X125907512Y-104328384D01*
X125917664Y-104308080D01*
X125977884Y-104277971D01*
X126202418Y-104277971D01*
X126262636Y-104308079D01*
G37*
G36*
X129643256Y-104779793D02*
G01*
X129673366Y-104840012D01*
X129673366Y-104907308D01*
X129643256Y-104967528D01*
X129583038Y-104997638D01*
X129279885Y-104997638D01*
X129268176Y-104991783D01*
X129268175Y-104751623D01*
X129272850Y-104749685D01*
X129583038Y-104749685D01*
X129643256Y-104779793D01*
G37*
G36*
X131245747Y-104997638D02*
G01*
X130852266Y-104997638D01*
X130762901Y-104952955D01*
X130728002Y-104918055D01*
X130683319Y-104828689D01*
X130683319Y-104682774D01*
X130728000Y-104593411D01*
X130752961Y-104568450D01*
X130900028Y-104519427D01*
X130907226Y-104520723D01*
X130923850Y-104513828D01*
X131245747Y-104513828D01*
X131245747Y-104997638D01*
G37*
G36*
X131245747Y-104132828D02*
G01*
X130930885Y-104132828D01*
X130841520Y-104088145D01*
X130806620Y-104053245D01*
X130761938Y-103963880D01*
X130761938Y-103896584D01*
X130806619Y-103807221D01*
X130841520Y-103772320D01*
X130930885Y-103727638D01*
X131245747Y-103727638D01*
X131245747Y-104132828D01*
G37*
G36*
X132887357Y-106217357D02*
G01*
X100617862Y-106217357D01*
X100617862Y-105216393D01*
X101757579Y-105216393D01*
X101804052Y-105318155D01*
X101898164Y-105378638D01*
X102101085Y-105378638D01*
X102146502Y-105383542D01*
X102181327Y-105366129D01*
X102218678Y-105355162D01*
X102230463Y-105341561D01*
X102310364Y-105301610D01*
X102317764Y-105301871D01*
X102359928Y-105276827D01*
X102378266Y-105267659D01*
X102383388Y-105262893D01*
X102413949Y-105244743D01*
X102423553Y-105225533D01*
X102439279Y-105210906D01*
X102448083Y-105176473D01*
X102512998Y-105046643D01*
X102532220Y-105016734D01*
X102935350Y-105016734D01*
X102942886Y-105051377D01*
X102942886Y-105215526D01*
X102966362Y-105295478D01*
X103050909Y-105368738D01*
X103161641Y-105384659D01*
X103252932Y-105342967D01*
X103274876Y-105353939D01*
X103313307Y-105378638D01*
X103352242Y-105378638D01*
X103390555Y-105385533D01*
X103407179Y-105378638D01*
X103594847Y-105378638D01*
X103640264Y-105383542D01*
X103675089Y-105366129D01*
X103712440Y-105355162D01*
X103724225Y-105341561D01*
X103804126Y-105301610D01*
X103811526Y-105301871D01*
X103853690Y-105276827D01*
X103872028Y-105267659D01*
X103877150Y-105262893D01*
X103907711Y-105244743D01*
X103917315Y-105225533D01*
X103933041Y-105210906D01*
X103941845Y-105176473D01*
X104006760Y-105046643D01*
X104031457Y-105008216D01*
X104031457Y-104969282D01*
X104038352Y-104930967D01*
X104031457Y-104914342D01*
X104031457Y-104423259D01*
X104351134Y-104423259D01*
X104358029Y-104439883D01*
X104358029Y-104863408D01*
X104353125Y-104908825D01*
X104370537Y-104943650D01*
X104381505Y-104981001D01*
X104395105Y-104992786D01*
X104446078Y-105094729D01*
X104452891Y-105126049D01*
X104490024Y-105163183D01*
X104525761Y-105201602D01*
X104529364Y-105202523D01*
X104554174Y-105227334D01*
X104570542Y-105254892D01*
X104617493Y-105278367D01*
X104663563Y-105303524D01*
X104667275Y-105303258D01*
X104768638Y-105353939D01*
X104807069Y-105378638D01*
X104846004Y-105378638D01*
X104884317Y-105385533D01*
X104900941Y-105378638D01*
X105088609Y-105378638D01*
X105134026Y-105383542D01*
X105168851Y-105366129D01*
X105206202Y-105355162D01*
X105217987Y-105341561D01*
X105319931Y-105290588D01*
X105351252Y-105283775D01*
X105388382Y-105246643D01*
X105426803Y-105210906D01*
X105427724Y-105207301D01*
X105452534Y-105182490D01*
X105480092Y-105166124D01*
X105503572Y-105119162D01*
X105528724Y-105073101D01*
X105528458Y-105069390D01*
X105579139Y-104968027D01*
X105603838Y-104929597D01*
X105603838Y-104890661D01*
X105610733Y-104852349D01*
X105603837Y-104835724D01*
X105603838Y-104412199D01*
X105608742Y-104366783D01*
X105591328Y-104331957D01*
X105580362Y-104294607D01*
X105566761Y-104282822D01*
X105515788Y-104180877D01*
X105508976Y-104149558D01*
X105471844Y-104112426D01*
X105436106Y-104074006D01*
X105433374Y-104073307D01*
X105844255Y-104073307D01*
X105868034Y-104182622D01*
X106262473Y-104577061D01*
X105873458Y-105095749D01*
X105844268Y-105173796D01*
X105867949Y-105283132D01*
X105946983Y-105362308D01*
X106056276Y-105386187D01*
X106161130Y-105347187D01*
X106480743Y-104921034D01*
X106480743Y-105215526D01*
X106504219Y-105295478D01*
X106588766Y-105368738D01*
X106699498Y-105384659D01*
X106801260Y-105338186D01*
X106861743Y-105244074D01*
X106861743Y-104750791D01*
X106869279Y-104730587D01*
X106861743Y-104695944D01*
X106861743Y-104344640D01*
X107260039Y-104344640D01*
X107266934Y-104361264D01*
X107266934Y-104477227D01*
X107265082Y-104529753D01*
X107266934Y-104532871D01*
X107266934Y-105106180D01*
X107265082Y-105158706D01*
X107266934Y-105161824D01*
X107266934Y-105215526D01*
X107290410Y-105295478D01*
X107374957Y-105368738D01*
X107485689Y-105384659D01*
X107533868Y-105362656D01*
X107558736Y-105378638D01*
X107597671Y-105378638D01*
X107635984Y-105385533D01*
X107652608Y-105378638D01*
X107997514Y-105378638D01*
X108042931Y-105383542D01*
X108077756Y-105366129D01*
X108115107Y-105355162D01*
X108126892Y-105341561D01*
X108206793Y-105301610D01*
X108214193Y-105301871D01*
X108256357Y-105276827D01*
X108274695Y-105267659D01*
X108279817Y-105262893D01*
X108310378Y-105244743D01*
X108319982Y-105225533D01*
X108335708Y-105210906D01*
X108344512Y-105176473D01*
X108409427Y-105046643D01*
X108434124Y-105008216D01*
X108434124Y-104969282D01*
X108441019Y-104930967D01*
X108434124Y-104914342D01*
X108434124Y-104805294D01*
X108439028Y-104759878D01*
X108421614Y-104725052D01*
X108410648Y-104687702D01*
X108397047Y-104675917D01*
X108357096Y-104596014D01*
X108357357Y-104588617D01*
X108332318Y-104546459D01*
X108323145Y-104528113D01*
X108318377Y-104522988D01*
X108300229Y-104492431D01*
X108281019Y-104482826D01*
X108268838Y-104469731D01*
X108674331Y-104469731D01*
X108682077Y-104502665D01*
X108682077Y-104507954D01*
X108688328Y-104529244D01*
X108699944Y-104578631D01*
X108703973Y-104582527D01*
X108705553Y-104587906D01*
X108743889Y-104621124D01*
X108780367Y-104656397D01*
X108785865Y-104657496D01*
X108790100Y-104661166D01*
X108840302Y-104668384D01*
X109468267Y-104793976D01*
X109468267Y-104907308D01*
X109438157Y-104967528D01*
X109377939Y-104997638D01*
X109153405Y-104997638D01*
X109011894Y-104926882D01*
X108929884Y-104912124D01*
X108826547Y-104954983D01*
X108762786Y-105046904D01*
X108758844Y-105158706D01*
X108815971Y-105254892D01*
X109014067Y-105353939D01*
X109052498Y-105378638D01*
X109091433Y-105378638D01*
X109129746Y-105385533D01*
X109146370Y-105378638D01*
X109412657Y-105378638D01*
X109458074Y-105383542D01*
X109492899Y-105366129D01*
X109530250Y-105355162D01*
X109542035Y-105341561D01*
X109621936Y-105301610D01*
X109629336Y-105301871D01*
X109671500Y-105276827D01*
X109689838Y-105267659D01*
X109694960Y-105262893D01*
X109725521Y-105244743D01*
X109735125Y-105225533D01*
X109750851Y-105210906D01*
X109759655Y-105176473D01*
X109824570Y-105046643D01*
X109849267Y-105008216D01*
X109849267Y-104969282D01*
X109856162Y-104930967D01*
X109849267Y-104914342D01*
X109849267Y-104670522D01*
X109857013Y-104648639D01*
X109849267Y-104615704D01*
X109849267Y-104333580D01*
X109854171Y-104288164D01*
X109836757Y-104253338D01*
X109825791Y-104215988D01*
X109812190Y-104204203D01*
X109772239Y-104124300D01*
X109772500Y-104116903D01*
X109771801Y-104115726D01*
X109933961Y-104115726D01*
X109980434Y-104217488D01*
X110074546Y-104277971D01*
X110242749Y-104277971D01*
X110332112Y-104322652D01*
X110367013Y-104357553D01*
X110411696Y-104446917D01*
X110411696Y-105215526D01*
X110435172Y-105295478D01*
X110519719Y-105368738D01*
X110630451Y-105384659D01*
X110732213Y-105338186D01*
X110792696Y-105244074D01*
X110792696Y-104423259D01*
X111112373Y-104423259D01*
X111119268Y-104439883D01*
X111119268Y-104863408D01*
X111114364Y-104908825D01*
X111131776Y-104943650D01*
X111142744Y-104981001D01*
X111156344Y-104992786D01*
X111207317Y-105094729D01*
X111214130Y-105126049D01*
X111251263Y-105163183D01*
X111287000Y-105201602D01*
X111290603Y-105202523D01*
X111315413Y-105227334D01*
X111331781Y-105254892D01*
X111378732Y-105278367D01*
X111424802Y-105303524D01*
X111428514Y-105303258D01*
X111529877Y-105353939D01*
X111568308Y-105378638D01*
X111607243Y-105378638D01*
X111645556Y-105385533D01*
X111662180Y-105378638D01*
X111928467Y-105378638D01*
X111973884Y-105383542D01*
X112008709Y-105366129D01*
X112010024Y-105365742D01*
X112013481Y-105368738D01*
X112124213Y-105384659D01*
X112225975Y-105338186D01*
X112286458Y-105244074D01*
X112286458Y-105133486D01*
X112294376Y-105102522D01*
X112286458Y-105078696D01*
X112286458Y-104169415D01*
X112288310Y-104116903D01*
X112287611Y-104115726D01*
X113707676Y-104115726D01*
X113754149Y-104217488D01*
X113848261Y-104277971D01*
X114016464Y-104277971D01*
X114105827Y-104322652D01*
X114140728Y-104357553D01*
X114185411Y-104446917D01*
X114185411Y-105215526D01*
X114208887Y-105295478D01*
X114293434Y-105368738D01*
X114404166Y-105384659D01*
X114505928Y-105338186D01*
X114566411Y-105244074D01*
X114566411Y-104423259D01*
X114886088Y-104423259D01*
X114892983Y-104439883D01*
X114892982Y-104863408D01*
X114888079Y-104908825D01*
X114905491Y-104943650D01*
X114916459Y-104981001D01*
X114930059Y-104992786D01*
X114981032Y-105094729D01*
X114987845Y-105126049D01*
X115024978Y-105163183D01*
X115060715Y-105201602D01*
X115064318Y-105202523D01*
X115089128Y-105227334D01*
X115105496Y-105254892D01*
X115152447Y-105278367D01*
X115198517Y-105303524D01*
X115202229Y-105303258D01*
X115303592Y-105353939D01*
X115342023Y-105378638D01*
X115380958Y-105378638D01*
X115419271Y-105385533D01*
X115435895Y-105378638D01*
X115623563Y-105378638D01*
X115668980Y-105383542D01*
X115703805Y-105366129D01*
X115741156Y-105355162D01*
X115752941Y-105341561D01*
X115854885Y-105290588D01*
X115886206Y-105283775D01*
X115923336Y-105246643D01*
X115961757Y-105210906D01*
X115962678Y-105207301D01*
X115987488Y-105182490D01*
X116015046Y-105166124D01*
X116038526Y-105119162D01*
X116063678Y-105073101D01*
X116063412Y-105069390D01*
X116114093Y-104968027D01*
X116138792Y-104929597D01*
X116138792Y-104894973D01*
X116379850Y-104894973D01*
X116386745Y-104911597D01*
X116386745Y-104942026D01*
X116381841Y-104987443D01*
X116399253Y-105022268D01*
X116410221Y-105059620D01*
X116423821Y-105071404D01*
X116463772Y-105151308D01*
X116463512Y-105158706D01*
X116488550Y-105200864D01*
X116497723Y-105219209D01*
X116502489Y-105224333D01*
X116520639Y-105254892D01*
X116539850Y-105264497D01*
X116554477Y-105280222D01*
X116588908Y-105289026D01*
X116718735Y-105353939D01*
X116757166Y-105378638D01*
X116796101Y-105378638D01*
X116834414Y-105385533D01*
X116851038Y-105378638D01*
X117117325Y-105378638D01*
X117162742Y-105383542D01*
X117197567Y-105366129D01*
X117234918Y-105355162D01*
X117246703Y-105341561D01*
X117394506Y-105267659D01*
X117455519Y-105210906D01*
X117483234Y-105102522D01*
X117447953Y-104996360D01*
X117360877Y-104926125D01*
X117249652Y-104914115D01*
X117082607Y-104997638D01*
X116858073Y-104997638D01*
X116797854Y-104967528D01*
X116770575Y-104912970D01*
X116797853Y-104858413D01*
X116858073Y-104828304D01*
X117038706Y-104828304D01*
X117084123Y-104833208D01*
X117118948Y-104815795D01*
X117156299Y-104804828D01*
X117168084Y-104791227D01*
X117247985Y-104751276D01*
X117255384Y-104751537D01*
X117297551Y-104726493D01*
X117315887Y-104717325D01*
X117321008Y-104712561D01*
X117351570Y-104694410D01*
X117361175Y-104675198D01*
X117376900Y-104660572D01*
X117385704Y-104626140D01*
X117450617Y-104496313D01*
X117475316Y-104457883D01*
X117475316Y-104418947D01*
X117482211Y-104380635D01*
X117475316Y-104364010D01*
X117475316Y-104344640D01*
X117794993Y-104344640D01*
X117801888Y-104361264D01*
X117801888Y-105215526D01*
X117825364Y-105295478D01*
X117909911Y-105368738D01*
X118020643Y-105384659D01*
X118122405Y-105338186D01*
X118182888Y-105244074D01*
X118182888Y-104368298D01*
X118212996Y-104308080D01*
X118273216Y-104277971D01*
X118419131Y-104277971D01*
X118508494Y-104322652D01*
X118509459Y-104323617D01*
X118509459Y-105215526D01*
X118532935Y-105295478D01*
X118617482Y-105368738D01*
X118728214Y-105384659D01*
X118829976Y-105338186D01*
X118890459Y-105244074D01*
X118890459Y-104469731D01*
X119209285Y-104469731D01*
X119217031Y-104502665D01*
X119217031Y-104507954D01*
X119223282Y-104529244D01*
X119234898Y-104578631D01*
X119238927Y-104582527D01*
X119240507Y-104587906D01*
X119278843Y-104621124D01*
X119315321Y-104656397D01*
X119320819Y-104657496D01*
X119325054Y-104661166D01*
X119375256Y-104668384D01*
X120003221Y-104793976D01*
X120003220Y-104907308D01*
X119973111Y-104967528D01*
X119912893Y-104997638D01*
X119688359Y-104997638D01*
X119546848Y-104926882D01*
X119464838Y-104912124D01*
X119361501Y-104954983D01*
X119297740Y-105046904D01*
X119293798Y-105158706D01*
X119350925Y-105254892D01*
X119549021Y-105353939D01*
X119587452Y-105378638D01*
X119626387Y-105378638D01*
X119664700Y-105385533D01*
X119681324Y-105378638D01*
X119947611Y-105378638D01*
X119993028Y-105383542D01*
X120027853Y-105366129D01*
X120065204Y-105355162D01*
X120076989Y-105341561D01*
X120156890Y-105301610D01*
X120164290Y-105301871D01*
X120206454Y-105276827D01*
X120224792Y-105267659D01*
X120229914Y-105262893D01*
X120260475Y-105244743D01*
X120270079Y-105225533D01*
X120285805Y-105210906D01*
X120294609Y-105176473D01*
X120359524Y-105046643D01*
X120384221Y-105008216D01*
X120384221Y-104969282D01*
X120391116Y-104930967D01*
X120384221Y-104914342D01*
X120384221Y-104894973D01*
X120625279Y-104894973D01*
X120632174Y-104911597D01*
X120632174Y-104942026D01*
X120627270Y-104987443D01*
X120644682Y-105022268D01*
X120655650Y-105059620D01*
X120669250Y-105071404D01*
X120709201Y-105151308D01*
X120708941Y-105158706D01*
X120733979Y-105200864D01*
X120743152Y-105219209D01*
X120747918Y-105224333D01*
X120766068Y-105254892D01*
X120785279Y-105264497D01*
X120799906Y-105280222D01*
X120834337Y-105289026D01*
X120964164Y-105353939D01*
X121002595Y-105378638D01*
X121041530Y-105378638D01*
X121079843Y-105385533D01*
X121096467Y-105378638D01*
X121362754Y-105378638D01*
X121408171Y-105383542D01*
X121442996Y-105366129D01*
X121480347Y-105355162D01*
X121492132Y-105341561D01*
X121639935Y-105267659D01*
X121700948Y-105210906D01*
X121728663Y-105102522D01*
X121693382Y-104996360D01*
X121606306Y-104926125D01*
X121495081Y-104914115D01*
X121328036Y-104997638D01*
X121103502Y-104997638D01*
X121043283Y-104967528D01*
X121016004Y-104912970D01*
X121043282Y-104858413D01*
X121103502Y-104828304D01*
X121284135Y-104828304D01*
X121329552Y-104833208D01*
X121364377Y-104815795D01*
X121401728Y-104804828D01*
X121413513Y-104791227D01*
X121493414Y-104751276D01*
X121500813Y-104751537D01*
X121542980Y-104726493D01*
X121561316Y-104717325D01*
X121566437Y-104712561D01*
X121596999Y-104694410D01*
X121606604Y-104675198D01*
X121622329Y-104660572D01*
X121631133Y-104626140D01*
X121696046Y-104496313D01*
X121720745Y-104457883D01*
X121720745Y-104418947D01*
X121727640Y-104380635D01*
X121720745Y-104364010D01*
X121720745Y-104333580D01*
X121725649Y-104288164D01*
X121708235Y-104253338D01*
X121697269Y-104215988D01*
X121683668Y-104204203D01*
X121643717Y-104124300D01*
X121643978Y-104116903D01*
X121633265Y-104098866D01*
X123140269Y-104098866D01*
X123534661Y-105203164D01*
X123533930Y-105206953D01*
X123538960Y-105219528D01*
X123538183Y-105233048D01*
X123557660Y-105267562D01*
X123561389Y-105278002D01*
X123563524Y-105280939D01*
X123706045Y-105637239D01*
X123714560Y-105676384D01*
X123746072Y-105707896D01*
X123773604Y-105742927D01*
X123785077Y-105746901D01*
X123815844Y-105777668D01*
X123832211Y-105805225D01*
X123879167Y-105828702D01*
X123925233Y-105853857D01*
X123928944Y-105853591D01*
X124063976Y-105921107D01*
X124145986Y-105935866D01*
X124249322Y-105893007D01*
X124313083Y-105801086D01*
X124317026Y-105689284D01*
X124259898Y-105593098D01*
X124080280Y-105503288D01*
X124051169Y-105474177D01*
X123935227Y-105184321D01*
X124313287Y-104125751D01*
X124313863Y-104115726D01*
X124321249Y-104115726D01*
X124367722Y-104217488D01*
X124461834Y-104277971D01*
X124630037Y-104277971D01*
X124719400Y-104322652D01*
X124754301Y-104357553D01*
X124798984Y-104446917D01*
X124798984Y-105215526D01*
X124822460Y-105295478D01*
X124907007Y-105368738D01*
X125017739Y-105384659D01*
X125119501Y-105338186D01*
X125179984Y-105244074D01*
X125179984Y-104469731D01*
X125498810Y-104469731D01*
X125506556Y-104502665D01*
X125506556Y-104507954D01*
X125512807Y-104529244D01*
X125524423Y-104578631D01*
X125528452Y-104582527D01*
X125530032Y-104587906D01*
X125568368Y-104621124D01*
X125604846Y-104656397D01*
X125610344Y-104657496D01*
X125614579Y-104661166D01*
X125664781Y-104668384D01*
X126292746Y-104793976D01*
X126292746Y-104907308D01*
X126262636Y-104967528D01*
X126202418Y-104997638D01*
X125977884Y-104997638D01*
X125836373Y-104926882D01*
X125754363Y-104912124D01*
X125651026Y-104954983D01*
X125587265Y-105046904D01*
X125583323Y-105158706D01*
X125640450Y-105254892D01*
X125838546Y-105353939D01*
X125876977Y-105378638D01*
X125915912Y-105378638D01*
X125954225Y-105385533D01*
X125970849Y-105378638D01*
X126237136Y-105378638D01*
X126282553Y-105383542D01*
X126317378Y-105366129D01*
X126354729Y-105355162D01*
X126366514Y-105341561D01*
X126446415Y-105301610D01*
X126453815Y-105301871D01*
X126495979Y-105276827D01*
X126514317Y-105267659D01*
X126519439Y-105262893D01*
X126550000Y-105244743D01*
X126559604Y-105225533D01*
X126569431Y-105216393D01*
X126758440Y-105216393D01*
X126804913Y-105318155D01*
X126899025Y-105378638D01*
X127101946Y-105378638D01*
X127147363Y-105383542D01*
X127182188Y-105366129D01*
X127219539Y-105355162D01*
X127231324Y-105341561D01*
X127311225Y-105301610D01*
X127318625Y-105301871D01*
X127360789Y-105276827D01*
X127379127Y-105267659D01*
X127384249Y-105262893D01*
X127414810Y-105244743D01*
X127424414Y-105225533D01*
X127440140Y-105210906D01*
X127448944Y-105176473D01*
X127513859Y-105046643D01*
X127538556Y-105008216D01*
X127538556Y-104969282D01*
X127545451Y-104930967D01*
X127538556Y-104914342D01*
X127538556Y-104277971D01*
X127611301Y-104277971D01*
X127691253Y-104254495D01*
X127739705Y-104198577D01*
X127748342Y-104217488D01*
X127842454Y-104277971D01*
X128100985Y-104277971D01*
X128100985Y-104907308D01*
X128070875Y-104967528D01*
X128010657Y-104997638D01*
X127871002Y-104997638D01*
X127791050Y-105021114D01*
X127717790Y-105105661D01*
X127701869Y-105216393D01*
X127748342Y-105318155D01*
X127842454Y-105378638D01*
X128045375Y-105378638D01*
X128090792Y-105383542D01*
X128125617Y-105366129D01*
X128162968Y-105355162D01*
X128174753Y-105341561D01*
X128254654Y-105301610D01*
X128262054Y-105301871D01*
X128304218Y-105276827D01*
X128322556Y-105267659D01*
X128327678Y-105262893D01*
X128358239Y-105244743D01*
X128367843Y-105225533D01*
X128383569Y-105210906D01*
X128392373Y-105176473D01*
X128457288Y-105046643D01*
X128481985Y-105008216D01*
X128481985Y-104969282D01*
X128488880Y-104930967D01*
X128481985Y-104914342D01*
X128481985Y-104344640D01*
X128880281Y-104344640D01*
X128887176Y-104361264D01*
X128887175Y-104477227D01*
X128885324Y-104529753D01*
X128887176Y-104532871D01*
X128887175Y-105106180D01*
X128885324Y-105158706D01*
X128887176Y-105161824D01*
X128887176Y-105215526D01*
X128910652Y-105295478D01*
X128995199Y-105368738D01*
X129105931Y-105384659D01*
X129154110Y-105362656D01*
X129178978Y-105378638D01*
X129217913Y-105378638D01*
X129256226Y-105385533D01*
X129272850Y-105378638D01*
X129617756Y-105378638D01*
X129663173Y-105383542D01*
X129697998Y-105366129D01*
X129735349Y-105355162D01*
X129747134Y-105341561D01*
X129827035Y-105301610D01*
X129834435Y-105301871D01*
X129876599Y-105276827D01*
X129894937Y-105267659D01*
X129900059Y-105262893D01*
X129930620Y-105244743D01*
X129940224Y-105225533D01*
X129955950Y-105210906D01*
X129964754Y-105176473D01*
X130029669Y-105046643D01*
X130054366Y-105008216D01*
X130054366Y-104969282D01*
X130061261Y-104930967D01*
X130054365Y-104914342D01*
X130054365Y-104805294D01*
X130059270Y-104759878D01*
X130041856Y-104725052D01*
X130030890Y-104687702D01*
X130017289Y-104675917D01*
X130008889Y-104659116D01*
X130295424Y-104659116D01*
X130302319Y-104675740D01*
X130302319Y-104863408D01*
X130297415Y-104908825D01*
X130314827Y-104943650D01*
X130325795Y-104981001D01*
X130339395Y-104992786D01*
X130390368Y-105094729D01*
X130397181Y-105126049D01*
X130434314Y-105163183D01*
X130470051Y-105201602D01*
X130473654Y-105202523D01*
X130498464Y-105227334D01*
X130514832Y-105254892D01*
X130561783Y-105278367D01*
X130607853Y-105303524D01*
X130611565Y-105303258D01*
X130712928Y-105353939D01*
X130751359Y-105378638D01*
X130790294Y-105378638D01*
X130828607Y-105385533D01*
X130845231Y-105378638D01*
X131422625Y-105378638D01*
X131464502Y-105384659D01*
X131502988Y-105367082D01*
X131543587Y-105355162D01*
X131553079Y-105344207D01*
X131566264Y-105338186D01*
X131589140Y-105302590D01*
X131616847Y-105270615D01*
X131618909Y-105256268D01*
X131626747Y-105244074D01*
X131626747Y-105201759D01*
X131632768Y-105159883D01*
X131626747Y-105146698D01*
X131626747Y-104336949D01*
X131632768Y-104295073D01*
X131626747Y-104281888D01*
X131626747Y-103550759D01*
X131632768Y-103508883D01*
X131615191Y-103470396D01*
X131603271Y-103429798D01*
X131592316Y-103420305D01*
X131586295Y-103407121D01*
X131550699Y-103384244D01*
X131518724Y-103356538D01*
X131504377Y-103354475D01*
X131492183Y-103346638D01*
X131449869Y-103346638D01*
X131407992Y-103340617D01*
X131394808Y-103346638D01*
X130896166Y-103346638D01*
X130850750Y-103341734D01*
X130815924Y-103359147D01*
X130778574Y-103370114D01*
X130766789Y-103383714D01*
X130664844Y-103434687D01*
X130633525Y-103441500D01*
X130596393Y-103478631D01*
X130557973Y-103514370D01*
X130557051Y-103517973D01*
X130532238Y-103542786D01*
X130504684Y-103559152D01*
X130481208Y-103606102D01*
X130456052Y-103652173D01*
X130456317Y-103655884D01*
X130405632Y-103757252D01*
X130380938Y-103795678D01*
X130380938Y-103834610D01*
X130374043Y-103872926D01*
X130380938Y-103889550D01*
X130380938Y-103998599D01*
X130376034Y-104044016D01*
X130393446Y-104078841D01*
X130404414Y-104116192D01*
X130418014Y-104127977D01*
X130468986Y-104229920D01*
X130475800Y-104261241D01*
X130494409Y-104279850D01*
X130488528Y-104294067D01*
X130453619Y-104328976D01*
X130426065Y-104345342D01*
X130402589Y-104392292D01*
X130377433Y-104438363D01*
X130377698Y-104442074D01*
X130327013Y-104543442D01*
X130302319Y-104581868D01*
X130302318Y-104620800D01*
X130295424Y-104659116D01*
X130008889Y-104659116D01*
X129977338Y-104596014D01*
X129977599Y-104588617D01*
X129952560Y-104546459D01*
X129943387Y-104528113D01*
X129938619Y-104522988D01*
X129920471Y-104492431D01*
X129901261Y-104482826D01*
X129886634Y-104467101D01*
X129852202Y-104458296D01*
X129722370Y-104393379D01*
X129683945Y-104368685D01*
X129645012Y-104368685D01*
X129606697Y-104361790D01*
X129590073Y-104368685D01*
X129279885Y-104368685D01*
X129270363Y-104363924D01*
X129298284Y-104308080D01*
X129358504Y-104277971D01*
X129583038Y-104277971D01*
X129724549Y-104348726D01*
X129806559Y-104363485D01*
X129909895Y-104320626D01*
X129973656Y-104228705D01*
X129977599Y-104116903D01*
X129920471Y-104020717D01*
X129722370Y-103921665D01*
X129683945Y-103896971D01*
X129645012Y-103896971D01*
X129606697Y-103890076D01*
X129590073Y-103896971D01*
X129323785Y-103896971D01*
X129278369Y-103892067D01*
X129243543Y-103909480D01*
X129206193Y-103920447D01*
X129194408Y-103934047D01*
X129114505Y-103973998D01*
X129107108Y-103973738D01*
X129064950Y-103998776D01*
X129046604Y-104007950D01*
X129041479Y-104012717D01*
X129010922Y-104030866D01*
X129001317Y-104050075D01*
X128985592Y-104064703D01*
X128976787Y-104099134D01*
X128911870Y-104228966D01*
X128887176Y-104267392D01*
X128887176Y-104306324D01*
X128880281Y-104344640D01*
X128481985Y-104344640D01*
X128481985Y-104277971D01*
X128554730Y-104277971D01*
X128634682Y-104254495D01*
X128707942Y-104169948D01*
X128723863Y-104059216D01*
X128677390Y-103957454D01*
X128583278Y-103896971D01*
X128481985Y-103896971D01*
X128481985Y-103509750D01*
X128458509Y-103429798D01*
X128373962Y-103356538D01*
X128263230Y-103340617D01*
X128161468Y-103387090D01*
X128100985Y-103481202D01*
X128100985Y-103896971D01*
X127871002Y-103896971D01*
X127791050Y-103920447D01*
X127742597Y-103976364D01*
X127733961Y-103957454D01*
X127639849Y-103896971D01*
X127538556Y-103896971D01*
X127538556Y-103509750D01*
X127515080Y-103429798D01*
X127430533Y-103356538D01*
X127319801Y-103340617D01*
X127218039Y-103387090D01*
X127157556Y-103481202D01*
X127157556Y-103896971D01*
X126927573Y-103896971D01*
X126847621Y-103920447D01*
X126774361Y-104004994D01*
X126758440Y-104115726D01*
X126804913Y-104217488D01*
X126899025Y-104277971D01*
X127157556Y-104277971D01*
X127157556Y-104907308D01*
X127127446Y-104967528D01*
X127067228Y-104997638D01*
X126927573Y-104997638D01*
X126847621Y-105021114D01*
X126774361Y-105105661D01*
X126758440Y-105216393D01*
X126569431Y-105216393D01*
X126575330Y-105210906D01*
X126584134Y-105176473D01*
X126649049Y-105046643D01*
X126673746Y-105008216D01*
X126673745Y-104969282D01*
X126680641Y-104930967D01*
X126673745Y-104914342D01*
X126673746Y-104670522D01*
X126681492Y-104648639D01*
X126673746Y-104615704D01*
X126673746Y-104333580D01*
X126678650Y-104288164D01*
X126661236Y-104253338D01*
X126650270Y-104215988D01*
X126636669Y-104204203D01*
X126596718Y-104124300D01*
X126596979Y-104116903D01*
X126571940Y-104074745D01*
X126562767Y-104056399D01*
X126557999Y-104051274D01*
X126539851Y-104020717D01*
X126520641Y-104011112D01*
X126506014Y-103995387D01*
X126471582Y-103986582D01*
X126341750Y-103921665D01*
X126303325Y-103896971D01*
X126264392Y-103896971D01*
X126226077Y-103890076D01*
X126209453Y-103896971D01*
X125943165Y-103896971D01*
X125897749Y-103892067D01*
X125862923Y-103909480D01*
X125825573Y-103920447D01*
X125813788Y-103934047D01*
X125733885Y-103973998D01*
X125726488Y-103973738D01*
X125684330Y-103998776D01*
X125665984Y-104007950D01*
X125660859Y-104012717D01*
X125630302Y-104030866D01*
X125620697Y-104050075D01*
X125604972Y-104064703D01*
X125596167Y-104099134D01*
X125531250Y-104228966D01*
X125506556Y-104267392D01*
X125506556Y-104306324D01*
X125499661Y-104344640D01*
X125506555Y-104361264D01*
X125506556Y-104447847D01*
X125498810Y-104469731D01*
X125179984Y-104469731D01*
X125179984Y-104412199D01*
X125184888Y-104366783D01*
X125179984Y-104356975D01*
X125179984Y-104060083D01*
X125156508Y-103980131D01*
X125071961Y-103906871D01*
X124961229Y-103890950D01*
X124859467Y-103937423D01*
X124845219Y-103959591D01*
X124769369Y-103921665D01*
X124730944Y-103896971D01*
X124692011Y-103896971D01*
X124653696Y-103890076D01*
X124637072Y-103896971D01*
X124490382Y-103896971D01*
X124410430Y-103920447D01*
X124337170Y-104004994D01*
X124321249Y-104115726D01*
X124313863Y-104115726D01*
X124318070Y-104042561D01*
X124263088Y-103945133D01*
X124164162Y-103892896D01*
X124052698Y-103902435D01*
X123964085Y-103970722D01*
X123731578Y-104621740D01*
X123508674Y-103997607D01*
X123459675Y-103930208D01*
X123355414Y-103889652D01*
X123245778Y-103911902D01*
X123165575Y-103989894D01*
X123140269Y-104098866D01*
X121633265Y-104098866D01*
X121618939Y-104074745D01*
X121609766Y-104056399D01*
X121604998Y-104051274D01*
X121586850Y-104020717D01*
X121567640Y-104011112D01*
X121553013Y-103995387D01*
X121518581Y-103986582D01*
X121388749Y-103921665D01*
X121350324Y-103896971D01*
X121311391Y-103896971D01*
X121273076Y-103890076D01*
X121256452Y-103896971D01*
X121068783Y-103896971D01*
X121023367Y-103892067D01*
X120988541Y-103909480D01*
X120951191Y-103920447D01*
X120939406Y-103934047D01*
X120791602Y-104007950D01*
X120730590Y-104064703D01*
X120702875Y-104173087D01*
X120738155Y-104279249D01*
X120825231Y-104349484D01*
X120936457Y-104361494D01*
X121103502Y-104277971D01*
X121249417Y-104277971D01*
X121309635Y-104308079D01*
X121336914Y-104362637D01*
X121309635Y-104417194D01*
X121249417Y-104447304D01*
X121068783Y-104447304D01*
X121023367Y-104442400D01*
X120988541Y-104459813D01*
X120951191Y-104470780D01*
X120939406Y-104484380D01*
X120859503Y-104524331D01*
X120852106Y-104524071D01*
X120809948Y-104549109D01*
X120791602Y-104558283D01*
X120786477Y-104563050D01*
X120755920Y-104581199D01*
X120746315Y-104600408D01*
X120730590Y-104615036D01*
X120721785Y-104649467D01*
X120656868Y-104779299D01*
X120632174Y-104817725D01*
X120632174Y-104856657D01*
X120625279Y-104894973D01*
X120384221Y-104894973D01*
X120384221Y-104670522D01*
X120391967Y-104648639D01*
X120384221Y-104615704D01*
X120384221Y-104333580D01*
X120389125Y-104288164D01*
X120371711Y-104253338D01*
X120360745Y-104215988D01*
X120347144Y-104204203D01*
X120307193Y-104124300D01*
X120307454Y-104116903D01*
X120282415Y-104074745D01*
X120273242Y-104056399D01*
X120268474Y-104051274D01*
X120250326Y-104020717D01*
X120231116Y-104011112D01*
X120216489Y-103995387D01*
X120182057Y-103986582D01*
X120052225Y-103921665D01*
X120013800Y-103896971D01*
X119974867Y-103896971D01*
X119936552Y-103890076D01*
X119919928Y-103896971D01*
X119653640Y-103896971D01*
X119608224Y-103892067D01*
X119573398Y-103909480D01*
X119536048Y-103920447D01*
X119524263Y-103934047D01*
X119444360Y-103973998D01*
X119436963Y-103973738D01*
X119394805Y-103998776D01*
X119376459Y-104007950D01*
X119371334Y-104012717D01*
X119340777Y-104030866D01*
X119331172Y-104050075D01*
X119315447Y-104064703D01*
X119306642Y-104099134D01*
X119241725Y-104228966D01*
X119217031Y-104267392D01*
X119217031Y-104306324D01*
X119210136Y-104344640D01*
X119217031Y-104361264D01*
X119217031Y-104447847D01*
X119209285Y-104469731D01*
X118890459Y-104469731D01*
X118890459Y-104279077D01*
X118897995Y-104258873D01*
X118890459Y-104224229D01*
X118890459Y-104060083D01*
X118866983Y-103980131D01*
X118782436Y-103906871D01*
X118671704Y-103890950D01*
X118580413Y-103932640D01*
X118558463Y-103921665D01*
X118520038Y-103896971D01*
X118481105Y-103896971D01*
X118442790Y-103890076D01*
X118426166Y-103896971D01*
X118238497Y-103896971D01*
X118193081Y-103892067D01*
X118158255Y-103909480D01*
X118120905Y-103920447D01*
X118109120Y-103934047D01*
X118029217Y-103973998D01*
X118021820Y-103973738D01*
X117979662Y-103998776D01*
X117961316Y-104007950D01*
X117956191Y-104012717D01*
X117925634Y-104030866D01*
X117916029Y-104050075D01*
X117900304Y-104064703D01*
X117891499Y-104099134D01*
X117826582Y-104228966D01*
X117801888Y-104267392D01*
X117801887Y-104306324D01*
X117794993Y-104344640D01*
X117475316Y-104344640D01*
X117475316Y-104333580D01*
X117480220Y-104288164D01*
X117462806Y-104253338D01*
X117451840Y-104215988D01*
X117438239Y-104204203D01*
X117398288Y-104124300D01*
X117398549Y-104116903D01*
X117373510Y-104074745D01*
X117364337Y-104056399D01*
X117359569Y-104051274D01*
X117341421Y-104020717D01*
X117322211Y-104011112D01*
X117307584Y-103995387D01*
X117273152Y-103986582D01*
X117143320Y-103921665D01*
X117104895Y-103896971D01*
X117065962Y-103896971D01*
X117027647Y-103890076D01*
X117011023Y-103896971D01*
X116823354Y-103896971D01*
X116777938Y-103892067D01*
X116743112Y-103909480D01*
X116705762Y-103920447D01*
X116693977Y-103934047D01*
X116546173Y-104007950D01*
X116485161Y-104064703D01*
X116457446Y-104173087D01*
X116492726Y-104279249D01*
X116579802Y-104349484D01*
X116691028Y-104361494D01*
X116858073Y-104277971D01*
X117003988Y-104277971D01*
X117064206Y-104308079D01*
X117091485Y-104362637D01*
X117064206Y-104417194D01*
X117003988Y-104447304D01*
X116823354Y-104447304D01*
X116777938Y-104442400D01*
X116743112Y-104459813D01*
X116705762Y-104470780D01*
X116693977Y-104484380D01*
X116614074Y-104524331D01*
X116606677Y-104524071D01*
X116564519Y-104549109D01*
X116546173Y-104558283D01*
X116541048Y-104563050D01*
X116510491Y-104581199D01*
X116500886Y-104600408D01*
X116485161Y-104615036D01*
X116476356Y-104649467D01*
X116411439Y-104779299D01*
X116386745Y-104817725D01*
X116386745Y-104856657D01*
X116379850Y-104894973D01*
X116138792Y-104894973D01*
X116138792Y-104890661D01*
X116145687Y-104852349D01*
X116138792Y-104835724D01*
X116138792Y-104412199D01*
X116143696Y-104366783D01*
X116126282Y-104331957D01*
X116115316Y-104294607D01*
X116101715Y-104282822D01*
X116050742Y-104180877D01*
X116043930Y-104149558D01*
X116006798Y-104112426D01*
X115971060Y-104074006D01*
X115967456Y-104073084D01*
X115942643Y-104048271D01*
X115926278Y-104020717D01*
X115879327Y-103997241D01*
X115833257Y-103972085D01*
X115829545Y-103972350D01*
X115728177Y-103921665D01*
X115689752Y-103896971D01*
X115650819Y-103896971D01*
X115612504Y-103890076D01*
X115595880Y-103896971D01*
X115408211Y-103896971D01*
X115362795Y-103892067D01*
X115327969Y-103909480D01*
X115290619Y-103920447D01*
X115278834Y-103934047D01*
X115176889Y-103985020D01*
X115145570Y-103991833D01*
X115108438Y-104028964D01*
X115070018Y-104064703D01*
X115069096Y-104068306D01*
X115044283Y-104093119D01*
X115016729Y-104109485D01*
X114993253Y-104156435D01*
X114968097Y-104202506D01*
X114968362Y-104206217D01*
X114917677Y-104307585D01*
X114892983Y-104346011D01*
X114892983Y-104384943D01*
X114886088Y-104423259D01*
X114566411Y-104423259D01*
X114566411Y-104412199D01*
X114571315Y-104366783D01*
X114566411Y-104356975D01*
X114566411Y-104060083D01*
X114542935Y-103980131D01*
X114458388Y-103906871D01*
X114347656Y-103890950D01*
X114245894Y-103937423D01*
X114231646Y-103959591D01*
X114155796Y-103921665D01*
X114117371Y-103896971D01*
X114078438Y-103896971D01*
X114040123Y-103890076D01*
X114023499Y-103896971D01*
X113876809Y-103896971D01*
X113796857Y-103920447D01*
X113723597Y-104004994D01*
X113707676Y-104115726D01*
X112287611Y-104115726D01*
X112286458Y-104113784D01*
X112286458Y-103509750D01*
X112262982Y-103429798D01*
X112178435Y-103356538D01*
X112067703Y-103340617D01*
X111965941Y-103387090D01*
X111905458Y-103481202D01*
X111905458Y-103895032D01*
X111900784Y-103896971D01*
X111634496Y-103896971D01*
X111589080Y-103892067D01*
X111554254Y-103909480D01*
X111516904Y-103920447D01*
X111505119Y-103934047D01*
X111403174Y-103985020D01*
X111371855Y-103991833D01*
X111334723Y-104028964D01*
X111296303Y-104064703D01*
X111295381Y-104068306D01*
X111270568Y-104093119D01*
X111243014Y-104109485D01*
X111219538Y-104156435D01*
X111194382Y-104202506D01*
X111194647Y-104206217D01*
X111143962Y-104307585D01*
X111119268Y-104346011D01*
X111119268Y-104384943D01*
X111112373Y-104423259D01*
X110792696Y-104423259D01*
X110792696Y-104412199D01*
X110797600Y-104366783D01*
X110792696Y-104356975D01*
X110792696Y-104060083D01*
X110769220Y-103980131D01*
X110684673Y-103906871D01*
X110573941Y-103890950D01*
X110472179Y-103937423D01*
X110457931Y-103959591D01*
X110382081Y-103921665D01*
X110343656Y-103896971D01*
X110304723Y-103896971D01*
X110266408Y-103890076D01*
X110249784Y-103896971D01*
X110103094Y-103896971D01*
X110023142Y-103920447D01*
X109949882Y-104004994D01*
X109933961Y-104115726D01*
X109771801Y-104115726D01*
X109747461Y-104074745D01*
X109738288Y-104056399D01*
X109733520Y-104051274D01*
X109715372Y-104020717D01*
X109696162Y-104011112D01*
X109681535Y-103995387D01*
X109647103Y-103986582D01*
X109517271Y-103921665D01*
X109478846Y-103896971D01*
X109439913Y-103896971D01*
X109401598Y-103890076D01*
X109384974Y-103896971D01*
X109118686Y-103896971D01*
X109073270Y-103892067D01*
X109038444Y-103909480D01*
X109001094Y-103920447D01*
X108989309Y-103934047D01*
X108909406Y-103973998D01*
X108902009Y-103973738D01*
X108859851Y-103998776D01*
X108841505Y-104007950D01*
X108836380Y-104012717D01*
X108805823Y-104030866D01*
X108796218Y-104050075D01*
X108780493Y-104064703D01*
X108771688Y-104099134D01*
X108706771Y-104228966D01*
X108682077Y-104267392D01*
X108682077Y-104306324D01*
X108675182Y-104344640D01*
X108682077Y-104361264D01*
X108682077Y-104447847D01*
X108674331Y-104469731D01*
X108268838Y-104469731D01*
X108266392Y-104467101D01*
X108231960Y-104458296D01*
X108102128Y-104393379D01*
X108063703Y-104368685D01*
X108024770Y-104368685D01*
X107986455Y-104361790D01*
X107969831Y-104368685D01*
X107659643Y-104368685D01*
X107650121Y-104363924D01*
X107678042Y-104308080D01*
X107738262Y-104277971D01*
X107962796Y-104277971D01*
X108104307Y-104348726D01*
X108186317Y-104363485D01*
X108289653Y-104320626D01*
X108353414Y-104228705D01*
X108357357Y-104116903D01*
X108300229Y-104020717D01*
X108102128Y-103921665D01*
X108063703Y-103896971D01*
X108024770Y-103896971D01*
X107986455Y-103890076D01*
X107969831Y-103896971D01*
X107703543Y-103896971D01*
X107658127Y-103892067D01*
X107623301Y-103909480D01*
X107585951Y-103920447D01*
X107574166Y-103934047D01*
X107494263Y-103973998D01*
X107486866Y-103973738D01*
X107444708Y-103998776D01*
X107426362Y-104007950D01*
X107421237Y-104012717D01*
X107390680Y-104030866D01*
X107381075Y-104050075D01*
X107365350Y-104064703D01*
X107356545Y-104099134D01*
X107291628Y-104228966D01*
X107266934Y-104267392D01*
X107266934Y-104306324D01*
X107260039Y-104344640D01*
X106861743Y-104344640D01*
X106861743Y-103509750D01*
X106838267Y-103429798D01*
X106753720Y-103356538D01*
X106642988Y-103340617D01*
X106541226Y-103387090D01*
X106480743Y-103481202D01*
X106480743Y-104256515D01*
X106157629Y-103933401D01*
X106084494Y-103893466D01*
X105972908Y-103901447D01*
X105883350Y-103968489D01*
X105844255Y-104073307D01*
X105433374Y-104073307D01*
X105432502Y-104073084D01*
X105407689Y-104048271D01*
X105391324Y-104020717D01*
X105344373Y-103997241D01*
X105298303Y-103972085D01*
X105294591Y-103972350D01*
X105193223Y-103921665D01*
X105154798Y-103896971D01*
X105115865Y-103896971D01*
X105077550Y-103890076D01*
X105060926Y-103896971D01*
X104873257Y-103896971D01*
X104827841Y-103892067D01*
X104793015Y-103909480D01*
X104755665Y-103920447D01*
X104743880Y-103934047D01*
X104641935Y-103985020D01*
X104610616Y-103991833D01*
X104573484Y-104028964D01*
X104535064Y-104064703D01*
X104534142Y-104068306D01*
X104509329Y-104093119D01*
X104481775Y-104109485D01*
X104458299Y-104156435D01*
X104433143Y-104202506D01*
X104433408Y-104206217D01*
X104382723Y-104307585D01*
X104358029Y-104346011D01*
X104358029Y-104384943D01*
X104351134Y-104423259D01*
X104031457Y-104423259D01*
X104031457Y-104060083D01*
X104007981Y-103980131D01*
X103923434Y-103906871D01*
X103812702Y-103890950D01*
X103710940Y-103937423D01*
X103650457Y-104031535D01*
X103650457Y-104907308D01*
X103620347Y-104967528D01*
X103560129Y-104997638D01*
X103414214Y-104997638D01*
X103324849Y-104952955D01*
X103323886Y-104951992D01*
X103323886Y-104060083D01*
X103300410Y-103980131D01*
X103215863Y-103906871D01*
X103105131Y-103890950D01*
X103003369Y-103937423D01*
X102942886Y-104031535D01*
X102942886Y-104996529D01*
X102935350Y-105016734D01*
X102532220Y-105016734D01*
X102537695Y-105008216D01*
X102537695Y-104969282D01*
X102544590Y-104930967D01*
X102537695Y-104914342D01*
X102537695Y-104277971D01*
X102610440Y-104277971D01*
X102690392Y-104254495D01*
X102763652Y-104169948D01*
X102779573Y-104059216D01*
X102733100Y-103957454D01*
X102638988Y-103896971D01*
X102537695Y-103896971D01*
X102537695Y-103509750D01*
X102514219Y-103429798D01*
X102429672Y-103356538D01*
X102318940Y-103340617D01*
X102217178Y-103387090D01*
X102156695Y-103481202D01*
X102156695Y-103896971D01*
X101926712Y-103896971D01*
X101846760Y-103920447D01*
X101773500Y-104004994D01*
X101757579Y-104115726D01*
X101804052Y-104217488D01*
X101898164Y-104277971D01*
X102156695Y-104277971D01*
X102156695Y-104907308D01*
X102126585Y-104967528D01*
X102066367Y-104997638D01*
X101926712Y-104997638D01*
X101846760Y-105021114D01*
X101773500Y-105105661D01*
X101757579Y-105216393D01*
X100617862Y-105216393D01*
X100617862Y-101999143D01*
X132887357Y-101999143D01*
X132887357Y-106217357D01*
G37*
D11*
%TO.P,J13,1,Pin_1*%
%TO.N,Net-(J10-Pin_4)*%
X121920000Y-83820000D03*
D12*
%TO.P,J13,2,Pin_2*%
%TO.N,Net-(J10-Pin_3)*%
X121920000Y-81280000D03*
%TO.P,J13,3,Pin_3*%
%TO.N,Net-(J10-Pin_6)*%
X121920000Y-78740000D03*
%TO.P,J13,4,Pin_4*%
%TO.N,GND*%
X121920000Y-76200000D03*
%TD*%
D13*
%TO.P,J2,2,Pin_2*%
%TO.N,GND*%
X96520000Y-97790000D03*
D14*
%TO.P,J2,1,Pin_1*%
%TO.N,VMID*%
X96520000Y-95790000D03*
%TD*%
D12*
%TO.P,J4,3,Pin_3*%
%TO.N,GND*%
X109220000Y-96520000D03*
%TO.P,J4,2,Pin_2*%
%TO.N,VMID*%
X109220000Y-93980000D03*
D11*
%TO.P,J4,1,Pin_1*%
%TO.N,VBATT*%
X109220000Y-91440000D03*
%TD*%
D13*
%TO.P,J3,3,Pin_3*%
%TO.N,GND*%
X104140000Y-95980000D03*
%TO.P,J3,2,Pin_2*%
%TO.N,VMID*%
X104140000Y-93980000D03*
D14*
%TO.P,J3,1,Pin_1*%
%TO.N,VBATT*%
X104140000Y-91980000D03*
%TD*%
%TO.P,J1,1,Pin_1*%
%TO.N,VBATT*%
X96520000Y-88805000D03*
D13*
%TO.P,J1,2,Pin_2*%
%TO.N,VMID*%
X96520000Y-90805000D03*
%TD*%
%TO.P,J5,5,Pin_5*%
%TO.N,GND*%
X116840000Y-97980000D03*
%TO.P,J5,4,Pin_4*%
X116840000Y-95980000D03*
%TO.P,J5,3,Pin_3*%
%TO.N,VMID*%
X116840000Y-93980000D03*
%TO.P,J5,2,Pin_2*%
%TO.N,VBATT*%
X116840000Y-91980000D03*
D14*
%TO.P,J5,1,Pin_1*%
X116840000Y-89980000D03*
%TD*%
D13*
%TO.P,J8,5,Pin_5*%
%TO.N,GND*%
X137160000Y-100520000D03*
%TO.P,J8,4,Pin_4*%
X137160000Y-98520000D03*
%TO.P,J8,3,Pin_3*%
%TO.N,VMID*%
X137160000Y-96520000D03*
%TO.P,J8,2,Pin_2*%
%TO.N,VLOAD*%
X137160000Y-94520000D03*
D14*
%TO.P,J8,1,Pin_1*%
X137160000Y-92520000D03*
%TD*%
D11*
%TO.P,J7,1,Pin_1*%
%TO.N,VLOAD*%
X129540000Y-92710000D03*
D12*
%TO.P,J7,2,Pin_2*%
%TO.N,VMID*%
X129540000Y-95250000D03*
%TO.P,J7,3,Pin_3*%
%TO.N,GND*%
X129540000Y-97790000D03*
%TD*%
D13*
%TO.P,J6,3,Pin_3*%
%TO.N,GND*%
X124460000Y-97250000D03*
%TO.P,J6,2,Pin_2*%
%TO.N,VMID*%
X124460000Y-95250000D03*
D14*
%TO.P,J6,1,Pin_1*%
%TO.N,VLOAD*%
X124460000Y-93250000D03*
%TD*%
D13*
%TO.P,J9,2,Pin_2*%
%TO.N,GND*%
X143510000Y-96520000D03*
D14*
%TO.P,J9,1,Pin_1*%
%TO.N,VLOAD*%
X143510000Y-94520000D03*
%TD*%
D15*
%TO.P,J12,1,Pin_1*%
%TO.N,Net-(J10-Pin_4)*%
X101600000Y-83820000D03*
D16*
%TO.P,J12,2,Pin_2*%
%TO.N,Net-(J10-Pin_3)*%
X101600000Y-81820000D03*
%TO.P,J12,3,Pin_3*%
%TO.N,Net-(J10-Pin_6)*%
X101600000Y-79820000D03*
%TO.P,J12,4,Pin_4*%
%TO.N,GND*%
X101600000Y-77820000D03*
%TD*%
D17*
%TO.P,J11,1,Pin_1*%
%TO.N,Net-(J10-Pin_4)*%
X109220000Y-83820000D03*
D13*
%TO.P,J11,2,Pin_2*%
%TO.N,Net-(J10-Pin_3)*%
X109220000Y-81820000D03*
%TO.P,J11,3,Pin_3*%
%TO.N,Net-(J10-Pin_6)*%
X109220000Y-79820000D03*
%TO.P,J11,4,Pin_4*%
%TO.N,GND*%
X109220000Y-77820000D03*
%TD*%
D12*
%TO.P,J10,6,VCC*%
%TO.N,Net-(J10-Pin_6)*%
X132080000Y-72390000D03*
%TO.P,J10,5,GND*%
%TO.N,GND*%
X132080000Y-74930000D03*
%TO.P,J10,4,SCL*%
%TO.N,Net-(J10-Pin_4)*%
X132080000Y-77470000D03*
%TO.P,J10,3,SDA*%
%TO.N,Net-(J10-Pin_3)*%
X132080000Y-80010000D03*
%TO.P,J10,2,inm*%
%TO.N,VLOAD*%
X132080000Y-82550000D03*
D11*
%TO.P,J10,1,inp*%
%TO.N,VBATT*%
X132080000Y-85090000D03*
%TD*%
D18*
%TO.N,VMID*%
X120650000Y-95250000D02*
X119380000Y-93980000D01*
X124460000Y-95250000D02*
X120650000Y-95250000D01*
X119380000Y-93980000D02*
X116840000Y-93980000D01*
%TO.N,VLOAD*%
X134620000Y-92520000D02*
X129540000Y-92520000D01*
X129540000Y-92520000D02*
X125190000Y-92520000D01*
X129540000Y-92710000D02*
X129540000Y-92520000D01*
X125190000Y-92520000D02*
X124460000Y-93250000D01*
%TO.N,VMID*%
X129540000Y-95250000D02*
X124460000Y-95250000D01*
X133350000Y-96520000D02*
X132080000Y-95250000D01*
X137160000Y-96520000D02*
X133350000Y-96520000D01*
X132080000Y-95250000D02*
X129540000Y-95250000D01*
%TO.N,VLOAD*%
X132080000Y-82550000D02*
X134620000Y-82550000D01*
X134620000Y-82550000D02*
X134620000Y-92520000D01*
%TO.N,VBATT*%
X116840000Y-88900000D02*
X128270000Y-88900000D01*
X128270000Y-88900000D02*
X132080000Y-85090000D01*
X116840000Y-88900000D02*
X109220000Y-88900000D01*
X109220000Y-88900000D02*
X104140000Y-88900000D01*
X109220000Y-91440000D02*
X109220000Y-88900000D01*
X104140000Y-88900000D02*
X96615000Y-88900000D01*
X104140000Y-91980000D02*
X104140000Y-88900000D01*
X116840000Y-91980000D02*
X116840000Y-89980000D01*
X116840000Y-89980000D02*
X116840000Y-88900000D01*
X96615000Y-88900000D02*
X96520000Y-88805000D01*
%TO.N,VMID*%
X96520000Y-95790000D02*
X96520000Y-93980000D01*
X96520000Y-93980000D02*
X96520000Y-90805000D01*
X104140000Y-93980000D02*
X96520000Y-93980000D01*
X109220000Y-93980000D02*
X104140000Y-93980000D01*
X116840000Y-93980000D02*
X109220000Y-93980000D01*
D19*
%TO.N,Net-(J10-Pin_6)*%
X132080000Y-72390000D02*
X130810000Y-72390000D01*
X130810000Y-72390000D02*
X124460000Y-78740000D01*
X124460000Y-78740000D02*
X121920000Y-78740000D01*
%TO.N,Net-(J10-Pin_4)*%
X130810000Y-81280000D02*
X128270000Y-83820000D01*
X134620000Y-78740000D02*
X134620000Y-80010000D01*
X132080000Y-77470000D02*
X133350000Y-77470000D01*
X133350000Y-81280000D02*
X130810000Y-81280000D01*
X133350000Y-77470000D02*
X134620000Y-78740000D01*
X134620000Y-80010000D02*
X133350000Y-81280000D01*
X128270000Y-83820000D02*
X121920000Y-83820000D01*
%TO.N,Net-(J10-Pin_3)*%
X124460000Y-80010000D02*
X123190000Y-81280000D01*
X123190000Y-81280000D02*
X121920000Y-81280000D01*
X132080000Y-80010000D02*
X124460000Y-80010000D01*
D18*
%TO.N,VLOAD*%
X137160000Y-92520000D02*
X141510000Y-92520000D01*
X141510000Y-92520000D02*
X143510000Y-94520000D01*
D20*
%TO.N,Net-(J10-Pin_4)*%
X109220000Y-83820000D02*
X101600000Y-83820000D01*
%TO.N,Net-(J10-Pin_3)*%
X109220000Y-81820000D02*
X101600000Y-81820000D01*
%TO.N,Net-(J10-Pin_6)*%
X109220000Y-79820000D02*
X101600000Y-79820000D01*
D18*
%TO.N,VLOAD*%
X137160000Y-92520000D02*
X134620000Y-92520000D01*
D20*
%TO.N,Net-(J10-Pin_4)*%
X121920000Y-83820000D02*
X109220000Y-83820000D01*
%TO.N,Net-(J10-Pin_3)*%
X121920000Y-81280000D02*
X114300000Y-81280000D01*
X114300000Y-81280000D02*
X113760000Y-81820000D01*
X113760000Y-81820000D02*
X109220000Y-81820000D01*
%TO.N,Net-(J10-Pin_6)*%
X121920000Y-78740000D02*
X114300000Y-78740000D01*
X113220000Y-79820000D02*
X109220000Y-79820000D01*
X114300000Y-78740000D02*
X113220000Y-79820000D01*
D18*
%TO.N,VLOAD*%
X137160000Y-92520000D02*
X137160000Y-94520000D01*
%TD*%
%TA.AperFunction,Conductor*%
%TO.N,GND*%
G36*
X136979052Y-98854363D02*
G01*
X137097424Y-98895000D01*
X137191073Y-98895000D01*
X137283446Y-98879586D01*
X137393514Y-98820019D01*
X137414000Y-98797765D01*
X137414000Y-100242496D01*
X137340948Y-100185637D01*
X137222576Y-100145000D01*
X137128927Y-100145000D01*
X137036554Y-100160414D01*
X136926486Y-100219981D01*
X136906000Y-100242234D01*
X136906000Y-98797503D01*
X136979052Y-98854363D01*
G37*
%TD.AperFunction*%
%TA.AperFunction,Conductor*%
G36*
X116659052Y-96314363D02*
G01*
X116777424Y-96355000D01*
X116871073Y-96355000D01*
X116963446Y-96339586D01*
X117073514Y-96280019D01*
X117094000Y-96257765D01*
X117094000Y-97702496D01*
X117020948Y-97645637D01*
X116902576Y-97605000D01*
X116808927Y-97605000D01*
X116716554Y-97620414D01*
X116606486Y-97679981D01*
X116586000Y-97702234D01*
X116586000Y-96257503D01*
X116659052Y-96314363D01*
G37*
%TD.AperFunction*%
%TA.AperFunction,Conductor*%
G36*
X130980888Y-73222009D02*
G01*
X131029554Y-73254725D01*
X131092390Y-73322982D01*
X131156762Y-73392908D01*
X131211331Y-73435381D01*
X131334424Y-73531189D01*
X131368205Y-73549470D01*
X131418596Y-73599482D01*
X131433949Y-73668799D01*
X131409389Y-73735412D01*
X131368209Y-73771096D01*
X131334704Y-73789228D01*
X131334698Y-73789232D01*
X131157097Y-73927465D01*
X131004674Y-74093041D01*
X130881580Y-74281451D01*
X130791179Y-74487543D01*
X130791176Y-74487550D01*
X130743455Y-74675999D01*
X130743456Y-74676000D01*
X131648884Y-74676000D01*
X131620507Y-74720156D01*
X131580000Y-74858111D01*
X131580000Y-75001889D01*
X131620507Y-75139844D01*
X131648884Y-75184000D01*
X130743455Y-75184000D01*
X130791176Y-75372449D01*
X130791179Y-75372456D01*
X130881580Y-75578548D01*
X131004674Y-75766958D01*
X131157097Y-75932534D01*
X131334698Y-76070767D01*
X131334704Y-76070771D01*
X131368207Y-76088902D01*
X131418597Y-76138915D01*
X131433949Y-76208232D01*
X131409388Y-76274845D01*
X131368207Y-76310528D01*
X131334430Y-76328807D01*
X131334424Y-76328811D01*
X131156762Y-76467091D01*
X131004279Y-76632729D01*
X131004275Y-76632734D01*
X130881141Y-76821206D01*
X130790703Y-77027386D01*
X130790702Y-77027387D01*
X130735437Y-77245624D01*
X130735436Y-77245630D01*
X130735436Y-77245632D01*
X130716844Y-77470000D01*
X130733191Y-77667281D01*
X130735437Y-77694375D01*
X130790702Y-77912612D01*
X130790703Y-77912613D01*
X130790704Y-77912616D01*
X130881140Y-78118791D01*
X130881141Y-78118793D01*
X131004275Y-78307265D01*
X131004279Y-78307270D01*
X131083306Y-78393115D01*
X131144468Y-78459554D01*
X131156762Y-78472908D01*
X131173078Y-78485607D01*
X131334424Y-78611189D01*
X131367680Y-78629186D01*
X131418071Y-78679200D01*
X131433423Y-78748516D01*
X131408862Y-78815129D01*
X131367680Y-78850813D01*
X131334426Y-78868810D01*
X131334424Y-78868811D01*
X131156762Y-79007091D01*
X131004279Y-79172729D01*
X131004275Y-79172734D01*
X130909752Y-79317415D01*
X130855749Y-79363504D01*
X130804269Y-79374500D01*
X125028421Y-79374500D01*
X124960300Y-79354498D01*
X124913807Y-79300842D01*
X124903703Y-79230568D01*
X124933197Y-79165988D01*
X124939326Y-79159405D01*
X127907532Y-76191199D01*
X130847763Y-73250968D01*
X130910073Y-73216944D01*
X130980888Y-73222009D01*
G37*
%TD.AperFunction*%
%TA.AperFunction,Conductor*%
G36*
X145991621Y-69870502D02*
G01*
X146038114Y-69924158D01*
X146049500Y-69976500D01*
X146049500Y-107823500D01*
X146029498Y-107891621D01*
X145975842Y-107938114D01*
X145923500Y-107949500D01*
X92836500Y-107949500D01*
X92768379Y-107929498D01*
X92721886Y-107875842D01*
X92710500Y-107823500D01*
X92710500Y-104207765D01*
X94665788Y-104207765D01*
X94695412Y-104477014D01*
X94763928Y-104739090D01*
X94869869Y-104988389D01*
X94869870Y-104988390D01*
X95010982Y-105219610D01*
X95184255Y-105427820D01*
X95385998Y-105608582D01*
X95611910Y-105758044D01*
X95857176Y-105873020D01*
X96116569Y-105951060D01*
X96116572Y-105951060D01*
X96116574Y-105951061D01*
X96384557Y-105990500D01*
X96384561Y-105990500D01*
X96587631Y-105990500D01*
X96790156Y-105975677D01*
X96790160Y-105975676D01*
X96790161Y-105975676D01*
X96900665Y-105951060D01*
X97054553Y-105916780D01*
X97307558Y-105820014D01*
X97543777Y-105687441D01*
X97758177Y-105521888D01*
X97946186Y-105326881D01*
X98103799Y-105106579D01*
X98227656Y-104865675D01*
X98315118Y-104609305D01*
X98364319Y-104342933D01*
X98374212Y-104072235D01*
X98359338Y-103937058D01*
X98344587Y-103802985D01*
X98276071Y-103540909D01*
X98170130Y-103291610D01*
X98170129Y-103291609D01*
X98029018Y-103060390D01*
X97855745Y-102852180D01*
X97855741Y-102852177D01*
X97855740Y-102852175D01*
X97654012Y-102671427D01*
X97654002Y-102671418D01*
X97428090Y-102521956D01*
X97182824Y-102406980D01*
X97025392Y-102359615D01*
X96923425Y-102328938D01*
X96655442Y-102289500D01*
X96655439Y-102289500D01*
X96452369Y-102289500D01*
X96249839Y-102304323D01*
X96249838Y-102304323D01*
X95985456Y-102363217D01*
X95985441Y-102363222D01*
X95732441Y-102459986D01*
X95496229Y-102592555D01*
X95496225Y-102592557D01*
X95281818Y-102758116D01*
X95093815Y-102953117D01*
X95093810Y-102953123D01*
X94936203Y-103173417D01*
X94936196Y-103173427D01*
X94812343Y-103414324D01*
X94812342Y-103414327D01*
X94724883Y-103670689D01*
X94724880Y-103670702D01*
X94675681Y-103937058D01*
X94675680Y-103937069D01*
X94665788Y-104207765D01*
X92710500Y-104207765D01*
X92710500Y-102062143D01*
X100680862Y-102062143D01*
X100680862Y-106154357D01*
X132824357Y-106154357D01*
X132824357Y-104207765D01*
X140385788Y-104207765D01*
X140415412Y-104477014D01*
X140483928Y-104739090D01*
X140589869Y-104988389D01*
X140589870Y-104988390D01*
X140730982Y-105219610D01*
X140904255Y-105427820D01*
X141105998Y-105608582D01*
X141331910Y-105758044D01*
X141577176Y-105873020D01*
X141836569Y-105951060D01*
X141836572Y-105951060D01*
X141836574Y-105951061D01*
X142104557Y-105990500D01*
X142104561Y-105990500D01*
X142307631Y-105990500D01*
X142510156Y-105975677D01*
X142510160Y-105975676D01*
X142510161Y-105975676D01*
X142620665Y-105951060D01*
X142774553Y-105916780D01*
X143027558Y-105820014D01*
X143263777Y-105687441D01*
X143478177Y-105521888D01*
X143666186Y-105326881D01*
X143823799Y-105106579D01*
X143947656Y-104865675D01*
X144035118Y-104609305D01*
X144084319Y-104342933D01*
X144094212Y-104072235D01*
X144079338Y-103937058D01*
X144064587Y-103802985D01*
X143996071Y-103540909D01*
X143890130Y-103291610D01*
X143890130Y-103291609D01*
X143749018Y-103060390D01*
X143575745Y-102852180D01*
X143575741Y-102852177D01*
X143575740Y-102852175D01*
X143374012Y-102671427D01*
X143374002Y-102671418D01*
X143148090Y-102521956D01*
X142902824Y-102406980D01*
X142745392Y-102359615D01*
X142643425Y-102328938D01*
X142375442Y-102289500D01*
X142375439Y-102289500D01*
X142172369Y-102289500D01*
X141969839Y-102304323D01*
X141969838Y-102304323D01*
X141705456Y-102363217D01*
X141705441Y-102363222D01*
X141452441Y-102459986D01*
X141216229Y-102592555D01*
X141216225Y-102592557D01*
X141001818Y-102758116D01*
X140813815Y-102953117D01*
X140813810Y-102953123D01*
X140656203Y-103173417D01*
X140656196Y-103173427D01*
X140532343Y-103414324D01*
X140532342Y-103414327D01*
X140444883Y-103670689D01*
X140444880Y-103670702D01*
X140395681Y-103937058D01*
X140395680Y-103937069D01*
X140385788Y-104207765D01*
X132824357Y-104207765D01*
X132824357Y-102062143D01*
X100680862Y-102062143D01*
X92710500Y-102062143D01*
X92710500Y-90752014D01*
X95132718Y-90752014D01*
X95142790Y-90963463D01*
X95142792Y-90963476D01*
X95192700Y-91169198D01*
X95192702Y-91169204D01*
X95280644Y-91361771D01*
X95391480Y-91517419D01*
X95403441Y-91534215D01*
X95464450Y-91592387D01*
X95499948Y-91653868D01*
X95503500Y-91683576D01*
X95503500Y-93926970D01*
X95503196Y-93933149D01*
X95498582Y-93979996D01*
X95498582Y-93980002D01*
X95503196Y-94026849D01*
X95503500Y-94033028D01*
X95503500Y-94719974D01*
X95483498Y-94788095D01*
X95443649Y-94827214D01*
X95421350Y-94840968D01*
X95295971Y-94966346D01*
X95295970Y-94966347D01*
X95202885Y-95117262D01*
X95147113Y-95285572D01*
X95147112Y-95285579D01*
X95136500Y-95389446D01*
X95136501Y-96190543D01*
X95147112Y-96294425D01*
X95202885Y-96462738D01*
X95295970Y-96613652D01*
X95295975Y-96613658D01*
X95421341Y-96739024D01*
X95421347Y-96739029D01*
X95421348Y-96739030D01*
X95473804Y-96771385D01*
X95521281Y-96824170D01*
X95532684Y-96894245D01*
X95504392Y-96959360D01*
X95485549Y-96977664D01*
X95476916Y-96984453D01*
X95476908Y-96984460D01*
X95338343Y-97144374D01*
X95338342Y-97144375D01*
X95232545Y-97327622D01*
X95232541Y-97327631D01*
X95163337Y-97527584D01*
X95163335Y-97527590D01*
X95162126Y-97536000D01*
X96244122Y-97536000D01*
X96201722Y-97582059D01*
X96151449Y-97696670D01*
X96141114Y-97821395D01*
X96171837Y-97942719D01*
X96238008Y-98044000D01*
X95166480Y-98044000D01*
X95193175Y-98154038D01*
X95193177Y-98154045D01*
X95281077Y-98346515D01*
X95281079Y-98346519D01*
X95403821Y-98518887D01*
X95403822Y-98518888D01*
X95556964Y-98664909D01*
X95556965Y-98664910D01*
X95734975Y-98779308D01*
X95734980Y-98779311D01*
X95931414Y-98857952D01*
X95931420Y-98857953D01*
X96139194Y-98897999D01*
X96139203Y-98898000D01*
X96266000Y-98898000D01*
X96266000Y-98067503D01*
X96339052Y-98124363D01*
X96457424Y-98165000D01*
X96551073Y-98165000D01*
X96643446Y-98149586D01*
X96753514Y-98090019D01*
X96774000Y-98067765D01*
X96774000Y-98898000D01*
X96847779Y-98898000D01*
X96847800Y-98897998D01*
X97005633Y-98882927D01*
X97005648Y-98882924D01*
X97208677Y-98823310D01*
X97396754Y-98726349D01*
X97563085Y-98595544D01*
X97563091Y-98595539D01*
X97701656Y-98435625D01*
X97701657Y-98435624D01*
X97807454Y-98252377D01*
X97807458Y-98252368D01*
X97876662Y-98052415D01*
X97876664Y-98052409D01*
X97877873Y-98044000D01*
X96795878Y-98044000D01*
X96838278Y-97997941D01*
X96888551Y-97883330D01*
X96898886Y-97758605D01*
X96868163Y-97637281D01*
X96801992Y-97536000D01*
X97873519Y-97536000D01*
X97873519Y-97535999D01*
X97846824Y-97425961D01*
X97846822Y-97425954D01*
X97758922Y-97233484D01*
X97758920Y-97233480D01*
X97636178Y-97061112D01*
X97636177Y-97061111D01*
X97542379Y-96971674D01*
X97506881Y-96910189D01*
X97510259Y-96839273D01*
X97551441Y-96781441D01*
X97563173Y-96773249D01*
X97618652Y-96739030D01*
X97744030Y-96613652D01*
X97837115Y-96462738D01*
X97892887Y-96294426D01*
X97898704Y-96237492D01*
X97903500Y-96190553D01*
X97903500Y-96190545D01*
X97903499Y-95389455D01*
X97892887Y-95285574D01*
X97878371Y-95241766D01*
X97851982Y-95162131D01*
X97849543Y-95091178D01*
X97885851Y-95030168D01*
X97949380Y-94998473D01*
X97971588Y-94996500D01*
X102975211Y-94996500D01*
X103043332Y-95016502D01*
X103089825Y-95070158D01*
X103099929Y-95140432D01*
X103070436Y-95205012D01*
X102958343Y-95334374D01*
X102958342Y-95334375D01*
X102852545Y-95517622D01*
X102852541Y-95517631D01*
X102783337Y-95717584D01*
X102783335Y-95717590D01*
X102782126Y-95726000D01*
X103864122Y-95726000D01*
X103821722Y-95772059D01*
X103771449Y-95886670D01*
X103761114Y-96011395D01*
X103791837Y-96132719D01*
X103858008Y-96234000D01*
X102786480Y-96234000D01*
X102813175Y-96344038D01*
X102813177Y-96344045D01*
X102901077Y-96536515D01*
X102901079Y-96536519D01*
X103023821Y-96708887D01*
X103023822Y-96708888D01*
X103176964Y-96854909D01*
X103176965Y-96854910D01*
X103354975Y-96969308D01*
X103354980Y-96969311D01*
X103551414Y-97047952D01*
X103551420Y-97047953D01*
X103759194Y-97087999D01*
X103759203Y-97088000D01*
X103886000Y-97088000D01*
X103886000Y-96257503D01*
X103959052Y-96314363D01*
X104077424Y-96355000D01*
X104171073Y-96355000D01*
X104263446Y-96339586D01*
X104373514Y-96280019D01*
X104394000Y-96257765D01*
X104394000Y-97088000D01*
X104467779Y-97088000D01*
X104467800Y-97087998D01*
X104625633Y-97072927D01*
X104625648Y-97072924D01*
X104828677Y-97013310D01*
X105016754Y-96916349D01*
X105183085Y-96785544D01*
X105183091Y-96785539D01*
X105321656Y-96625625D01*
X105321657Y-96625624D01*
X105427454Y-96442377D01*
X105427458Y-96442368D01*
X105496662Y-96242415D01*
X105496664Y-96242409D01*
X105497873Y-96234000D01*
X104415878Y-96234000D01*
X104458278Y-96187941D01*
X104508551Y-96073330D01*
X104518886Y-95948605D01*
X104488163Y-95827281D01*
X104421992Y-95726000D01*
X105493519Y-95726000D01*
X105493519Y-95725999D01*
X105466824Y-95615961D01*
X105466822Y-95615954D01*
X105378922Y-95423484D01*
X105378920Y-95423480D01*
X105256178Y-95251112D01*
X105256177Y-95251111D01*
X105216931Y-95213690D01*
X105181433Y-95152205D01*
X105184811Y-95081289D01*
X105225993Y-95023457D01*
X105291904Y-94997071D01*
X105303881Y-94996500D01*
X108270969Y-94996500D01*
X108339090Y-95016502D01*
X108348360Y-95023069D01*
X108474416Y-95121183D01*
X108474424Y-95121189D01*
X108508205Y-95139470D01*
X108558596Y-95189482D01*
X108573949Y-95258799D01*
X108549389Y-95325412D01*
X108508209Y-95361096D01*
X108474704Y-95379228D01*
X108474698Y-95379232D01*
X108297097Y-95517465D01*
X108144674Y-95683041D01*
X108021580Y-95871451D01*
X107931179Y-96077543D01*
X107931176Y-96077550D01*
X107883455Y-96265999D01*
X107883456Y-96266000D01*
X108788884Y-96266000D01*
X108760507Y-96310156D01*
X108720000Y-96448111D01*
X108720000Y-96591889D01*
X108760507Y-96729844D01*
X108788884Y-96774000D01*
X107883455Y-96774000D01*
X107931176Y-96962449D01*
X107931179Y-96962456D01*
X108021580Y-97168548D01*
X108144674Y-97356958D01*
X108297097Y-97522534D01*
X108474698Y-97660767D01*
X108474699Y-97660768D01*
X108672628Y-97767882D01*
X108672630Y-97767883D01*
X108885483Y-97840955D01*
X108885492Y-97840957D01*
X108966000Y-97854391D01*
X108966000Y-96953674D01*
X109077685Y-97004680D01*
X109184237Y-97020000D01*
X109255763Y-97020000D01*
X109362315Y-97004680D01*
X109474000Y-96953674D01*
X109474000Y-97854390D01*
X109554507Y-97840957D01*
X109554516Y-97840955D01*
X109767369Y-97767883D01*
X109767371Y-97767882D01*
X109965300Y-97660768D01*
X109965301Y-97660767D01*
X110142902Y-97522534D01*
X110295325Y-97356958D01*
X110418419Y-97168548D01*
X110508820Y-96962456D01*
X110508823Y-96962449D01*
X110556544Y-96774000D01*
X109651116Y-96774000D01*
X109679493Y-96729844D01*
X109720000Y-96591889D01*
X109720000Y-96448111D01*
X109679493Y-96310156D01*
X109651116Y-96266000D01*
X110556544Y-96266000D01*
X110556544Y-96265999D01*
X110508823Y-96077550D01*
X110508820Y-96077543D01*
X110418419Y-95871451D01*
X110295325Y-95683041D01*
X110142902Y-95517465D01*
X109965301Y-95379232D01*
X109965300Y-95379231D01*
X109931791Y-95361097D01*
X109881401Y-95311083D01*
X109866050Y-95241766D01*
X109890612Y-95175153D01*
X109931790Y-95139472D01*
X109965576Y-95121189D01*
X110089895Y-95024427D01*
X110091640Y-95023069D01*
X110157682Y-94997012D01*
X110169031Y-94996500D01*
X115675211Y-94996500D01*
X115743332Y-95016502D01*
X115789825Y-95070158D01*
X115799929Y-95140432D01*
X115770436Y-95205012D01*
X115658343Y-95334374D01*
X115658342Y-95334375D01*
X115552545Y-95517622D01*
X115552541Y-95517631D01*
X115483337Y-95717584D01*
X115483335Y-95717590D01*
X115482126Y-95726000D01*
X116564122Y-95726000D01*
X116521722Y-95772059D01*
X116471449Y-95886670D01*
X116461114Y-96011395D01*
X116491837Y-96132719D01*
X116558008Y-96234000D01*
X115486480Y-96234000D01*
X115513175Y-96344038D01*
X115513177Y-96344045D01*
X115601077Y-96536515D01*
X115601079Y-96536519D01*
X115723821Y-96708887D01*
X115723822Y-96708888D01*
X115876961Y-96854907D01*
X115907663Y-96874637D01*
X115954156Y-96928293D01*
X115964261Y-96998566D01*
X115934768Y-97063148D01*
X115917432Y-97079678D01*
X115796915Y-97174454D01*
X115796908Y-97174460D01*
X115658343Y-97334374D01*
X115658342Y-97334375D01*
X115552545Y-97517622D01*
X115552541Y-97517631D01*
X115483337Y-97717584D01*
X115483335Y-97717590D01*
X115482126Y-97726000D01*
X116564122Y-97726000D01*
X116521722Y-97772059D01*
X116471449Y-97886670D01*
X116461114Y-98011395D01*
X116491837Y-98132719D01*
X116558008Y-98234000D01*
X115486480Y-98234000D01*
X115513175Y-98344038D01*
X115513177Y-98344045D01*
X115601077Y-98536515D01*
X115601079Y-98536519D01*
X115723821Y-98708887D01*
X115723822Y-98708888D01*
X115876964Y-98854909D01*
X115876965Y-98854910D01*
X116054975Y-98969308D01*
X116054980Y-98969311D01*
X116251414Y-99047952D01*
X116251420Y-99047953D01*
X116459194Y-99087999D01*
X116459203Y-99088000D01*
X116586000Y-99088000D01*
X116586000Y-98257503D01*
X116659052Y-98314363D01*
X116777424Y-98355000D01*
X116871073Y-98355000D01*
X116963446Y-98339586D01*
X117073514Y-98280019D01*
X117094000Y-98257765D01*
X117094000Y-99088000D01*
X117167779Y-99088000D01*
X117167800Y-99087998D01*
X117325633Y-99072927D01*
X117325648Y-99072924D01*
X117528677Y-99013310D01*
X117716754Y-98916349D01*
X117883085Y-98785544D01*
X117883091Y-98785539D01*
X118021656Y-98625625D01*
X118021657Y-98625624D01*
X118127454Y-98442377D01*
X118127458Y-98442368D01*
X118196662Y-98242415D01*
X118196664Y-98242409D01*
X118197873Y-98234000D01*
X117115878Y-98234000D01*
X117158278Y-98187941D01*
X117208551Y-98073330D01*
X117218886Y-97948605D01*
X117188163Y-97827281D01*
X117121992Y-97726000D01*
X118193519Y-97726000D01*
X118193519Y-97725999D01*
X118166824Y-97615961D01*
X118166822Y-97615954D01*
X118078922Y-97423484D01*
X118078920Y-97423480D01*
X117956178Y-97251112D01*
X117956177Y-97251111D01*
X117803035Y-97105090D01*
X117803034Y-97105089D01*
X117772336Y-97085361D01*
X117725843Y-97031706D01*
X117715738Y-96961432D01*
X117745231Y-96896851D01*
X117762568Y-96880320D01*
X117883086Y-96785544D01*
X117883091Y-96785539D01*
X118021656Y-96625625D01*
X118021657Y-96625624D01*
X118127454Y-96442377D01*
X118127458Y-96442368D01*
X118196662Y-96242415D01*
X118196664Y-96242409D01*
X118197873Y-96234000D01*
X117115878Y-96234000D01*
X117158278Y-96187941D01*
X117208551Y-96073330D01*
X117218886Y-95948605D01*
X117188163Y-95827281D01*
X117121992Y-95726000D01*
X118193519Y-95726000D01*
X118193519Y-95725999D01*
X118166824Y-95615961D01*
X118166822Y-95615954D01*
X118078922Y-95423484D01*
X118078920Y-95423480D01*
X117956178Y-95251112D01*
X117956177Y-95251111D01*
X117916931Y-95213690D01*
X117881433Y-95152205D01*
X117884811Y-95081289D01*
X117925993Y-95023457D01*
X117991904Y-94997071D01*
X118003881Y-94996500D01*
X118906761Y-94996500D01*
X118974882Y-95016502D01*
X118995856Y-95033404D01*
X119445949Y-95483498D01*
X119893728Y-95931277D01*
X119897882Y-95935860D01*
X119908341Y-95948605D01*
X119927748Y-95972252D01*
X119966531Y-96004080D01*
X119966534Y-96004083D01*
X120082530Y-96099278D01*
X120082532Y-96099279D01*
X120253274Y-96190543D01*
X120257361Y-96192727D01*
X120259120Y-96193667D01*
X120259126Y-96193669D01*
X120259129Y-96193670D01*
X120450727Y-96251791D01*
X120450728Y-96251791D01*
X120450731Y-96251792D01*
X120450735Y-96251792D01*
X120450739Y-96251793D01*
X120537149Y-96260303D01*
X120600066Y-96266500D01*
X120600068Y-96266500D01*
X120601154Y-96266607D01*
X120649998Y-96271418D01*
X120650000Y-96271418D01*
X120650002Y-96271418D01*
X120696846Y-96266804D01*
X120703026Y-96266500D01*
X123295211Y-96266500D01*
X123363332Y-96286502D01*
X123409825Y-96340158D01*
X123419929Y-96410432D01*
X123390436Y-96475012D01*
X123278343Y-96604374D01*
X123278342Y-96604375D01*
X123172545Y-96787622D01*
X123172541Y-96787631D01*
X123103337Y-96987584D01*
X123103335Y-96987590D01*
X123102126Y-96996000D01*
X124184122Y-96996000D01*
X124141722Y-97042059D01*
X124091449Y-97156670D01*
X124081114Y-97281395D01*
X124111837Y-97402719D01*
X124178008Y-97504000D01*
X123106480Y-97504000D01*
X123133175Y-97614038D01*
X123133177Y-97614045D01*
X123221077Y-97806515D01*
X123221079Y-97806519D01*
X123343821Y-97978887D01*
X123343822Y-97978888D01*
X123496964Y-98124909D01*
X123496965Y-98124910D01*
X123674975Y-98239308D01*
X123674980Y-98239311D01*
X123871414Y-98317952D01*
X123871420Y-98317953D01*
X124079194Y-98357999D01*
X124079203Y-98358000D01*
X124206000Y-98358000D01*
X124206000Y-97527503D01*
X124279052Y-97584363D01*
X124397424Y-97625000D01*
X124491073Y-97625000D01*
X124583446Y-97609586D01*
X124693514Y-97550019D01*
X124714000Y-97527765D01*
X124714000Y-98358000D01*
X124787779Y-98358000D01*
X124787800Y-98357998D01*
X124945633Y-98342927D01*
X124945648Y-98342924D01*
X125148677Y-98283310D01*
X125336754Y-98186349D01*
X125503085Y-98055544D01*
X125503091Y-98055539D01*
X125641656Y-97895625D01*
X125641657Y-97895624D01*
X125747454Y-97712377D01*
X125747458Y-97712368D01*
X125816662Y-97512415D01*
X125816664Y-97512409D01*
X125817873Y-97504000D01*
X124735878Y-97504000D01*
X124778278Y-97457941D01*
X124828551Y-97343330D01*
X124838886Y-97218605D01*
X124808163Y-97097281D01*
X124741992Y-96996000D01*
X125813519Y-96996000D01*
X125813519Y-96995999D01*
X125786824Y-96885961D01*
X125786822Y-96885954D01*
X125698922Y-96693484D01*
X125698920Y-96693480D01*
X125576178Y-96521112D01*
X125576177Y-96521111D01*
X125536931Y-96483690D01*
X125501433Y-96422205D01*
X125504811Y-96351289D01*
X125545993Y-96293457D01*
X125611904Y-96267071D01*
X125623881Y-96266500D01*
X128590969Y-96266500D01*
X128659090Y-96286502D01*
X128668360Y-96293069D01*
X128756309Y-96361523D01*
X128794424Y-96391189D01*
X128828205Y-96409470D01*
X128878596Y-96459482D01*
X128893949Y-96528799D01*
X128869389Y-96595412D01*
X128828209Y-96631096D01*
X128794704Y-96649228D01*
X128794698Y-96649232D01*
X128617097Y-96787465D01*
X128464674Y-96953041D01*
X128341580Y-97141451D01*
X128251179Y-97347543D01*
X128251176Y-97347550D01*
X128203455Y-97535999D01*
X128203456Y-97536000D01*
X129108884Y-97536000D01*
X129080507Y-97580156D01*
X129040000Y-97718111D01*
X129040000Y-97861889D01*
X129080507Y-97999844D01*
X129108884Y-98044000D01*
X128203455Y-98044000D01*
X128251176Y-98232449D01*
X128251179Y-98232456D01*
X128341580Y-98438548D01*
X128464674Y-98626958D01*
X128617097Y-98792534D01*
X128794698Y-98930767D01*
X128794699Y-98930768D01*
X128992628Y-99037882D01*
X128992630Y-99037883D01*
X129205483Y-99110955D01*
X129205492Y-99110957D01*
X129286000Y-99124391D01*
X129286000Y-98223674D01*
X129397685Y-98274680D01*
X129504237Y-98290000D01*
X129575763Y-98290000D01*
X129682315Y-98274680D01*
X129794000Y-98223674D01*
X129794000Y-99124390D01*
X129874507Y-99110957D01*
X129874516Y-99110955D01*
X130087369Y-99037883D01*
X130087371Y-99037882D01*
X130285300Y-98930768D01*
X130285301Y-98930767D01*
X130462902Y-98792534D01*
X130615325Y-98626958D01*
X130738419Y-98438548D01*
X130828820Y-98232456D01*
X130828823Y-98232449D01*
X130876544Y-98044000D01*
X129971116Y-98044000D01*
X129999493Y-97999844D01*
X130040000Y-97861889D01*
X130040000Y-97718111D01*
X129999493Y-97580156D01*
X129971116Y-97536000D01*
X130876544Y-97536000D01*
X130876544Y-97535999D01*
X130828823Y-97347550D01*
X130828820Y-97347543D01*
X130738419Y-97141451D01*
X130615325Y-96953041D01*
X130462902Y-96787465D01*
X130285301Y-96649232D01*
X130285300Y-96649231D01*
X130251791Y-96631097D01*
X130201401Y-96581083D01*
X130186050Y-96511766D01*
X130210612Y-96445153D01*
X130251790Y-96409472D01*
X130285576Y-96391189D01*
X130384281Y-96314363D01*
X130411640Y-96293069D01*
X130477682Y-96267012D01*
X130489031Y-96266500D01*
X131606761Y-96266500D01*
X131674882Y-96286502D01*
X131695856Y-96303404D01*
X132163835Y-96771384D01*
X132593728Y-97201277D01*
X132597882Y-97205860D01*
X132608341Y-97218605D01*
X132627748Y-97242252D01*
X132666531Y-97274080D01*
X132666534Y-97274083D01*
X132782530Y-97369278D01*
X132934166Y-97450328D01*
X132944482Y-97459226D01*
X132959120Y-97463666D01*
X132959120Y-97463667D01*
X133092079Y-97504000D01*
X133150727Y-97521791D01*
X133150728Y-97521791D01*
X133150731Y-97521792D01*
X133150735Y-97521792D01*
X133150739Y-97521793D01*
X133237149Y-97530303D01*
X133300066Y-97536500D01*
X133300068Y-97536500D01*
X133301154Y-97536607D01*
X133349998Y-97541418D01*
X133350000Y-97541418D01*
X133350002Y-97541418D01*
X133396846Y-97536804D01*
X133403026Y-97536500D01*
X135995211Y-97536500D01*
X136063332Y-97556502D01*
X136109825Y-97610158D01*
X136119929Y-97680432D01*
X136090436Y-97745012D01*
X135978343Y-97874374D01*
X135978342Y-97874375D01*
X135872545Y-98057622D01*
X135872541Y-98057631D01*
X135803337Y-98257584D01*
X135803335Y-98257590D01*
X135802126Y-98266000D01*
X136884122Y-98266000D01*
X136841722Y-98312059D01*
X136791449Y-98426670D01*
X136781114Y-98551395D01*
X136811837Y-98672719D01*
X136878008Y-98774000D01*
X135806480Y-98774000D01*
X135833175Y-98884038D01*
X135833177Y-98884045D01*
X135921077Y-99076515D01*
X135921079Y-99076519D01*
X136043821Y-99248887D01*
X136043822Y-99248888D01*
X136196961Y-99394907D01*
X136227663Y-99414637D01*
X136274156Y-99468293D01*
X136284261Y-99538566D01*
X136254768Y-99603148D01*
X136237432Y-99619678D01*
X136116915Y-99714454D01*
X136116908Y-99714460D01*
X135978343Y-99874374D01*
X135978342Y-99874375D01*
X135872545Y-100057622D01*
X135872541Y-100057631D01*
X135803337Y-100257584D01*
X135803335Y-100257590D01*
X135802126Y-100266000D01*
X136884122Y-100266000D01*
X136841722Y-100312059D01*
X136791449Y-100426670D01*
X136781114Y-100551395D01*
X136811837Y-100672719D01*
X136878008Y-100774000D01*
X135806480Y-100774000D01*
X135833175Y-100884038D01*
X135833177Y-100884045D01*
X135921077Y-101076515D01*
X135921079Y-101076519D01*
X136043821Y-101248887D01*
X136043822Y-101248888D01*
X136196964Y-101394909D01*
X136196965Y-101394910D01*
X136374975Y-101509308D01*
X136374980Y-101509311D01*
X136571414Y-101587952D01*
X136571420Y-101587953D01*
X136779194Y-101627999D01*
X136779203Y-101628000D01*
X136906000Y-101628000D01*
X136906000Y-100797503D01*
X136979052Y-100854363D01*
X137097424Y-100895000D01*
X137191073Y-100895000D01*
X137283446Y-100879586D01*
X137393514Y-100820019D01*
X137414000Y-100797765D01*
X137414000Y-101628000D01*
X137487779Y-101628000D01*
X137487800Y-101627998D01*
X137645633Y-101612927D01*
X137645648Y-101612924D01*
X137848677Y-101553310D01*
X138036754Y-101456349D01*
X138203085Y-101325544D01*
X138203091Y-101325539D01*
X138341656Y-101165625D01*
X138341657Y-101165624D01*
X138447454Y-100982377D01*
X138447458Y-100982368D01*
X138516662Y-100782415D01*
X138516664Y-100782409D01*
X138517873Y-100774000D01*
X137435878Y-100774000D01*
X137478278Y-100727941D01*
X137528551Y-100613330D01*
X137538886Y-100488605D01*
X137508163Y-100367281D01*
X137441992Y-100266000D01*
X138513519Y-100266000D01*
X138513519Y-100265999D01*
X138486824Y-100155961D01*
X138486822Y-100155954D01*
X138398922Y-99963484D01*
X138398920Y-99963480D01*
X138276178Y-99791112D01*
X138276177Y-99791111D01*
X138123035Y-99645090D01*
X138123034Y-99645089D01*
X138092336Y-99625361D01*
X138045843Y-99571706D01*
X138035738Y-99501432D01*
X138065231Y-99436851D01*
X138082568Y-99420320D01*
X138203086Y-99325544D01*
X138203091Y-99325539D01*
X138341656Y-99165625D01*
X138341657Y-99165624D01*
X138447454Y-98982377D01*
X138447458Y-98982368D01*
X138516662Y-98782415D01*
X138516664Y-98782409D01*
X138517873Y-98774000D01*
X137435878Y-98774000D01*
X137478278Y-98727941D01*
X137528551Y-98613330D01*
X137538886Y-98488605D01*
X137508163Y-98367281D01*
X137441992Y-98266000D01*
X138513519Y-98266000D01*
X138513519Y-98265999D01*
X138486824Y-98155961D01*
X138486822Y-98155954D01*
X138398922Y-97963484D01*
X138398920Y-97963480D01*
X138276178Y-97791112D01*
X138276177Y-97791111D01*
X138123035Y-97645090D01*
X138123034Y-97645089D01*
X138092781Y-97625647D01*
X138046288Y-97571992D01*
X138036183Y-97501718D01*
X138065676Y-97437137D01*
X138083010Y-97420608D01*
X138203432Y-97325908D01*
X138203748Y-97325544D01*
X138262846Y-97257340D01*
X138342065Y-97165918D01*
X138447913Y-96982582D01*
X138517153Y-96782527D01*
X138539712Y-96625625D01*
X138547281Y-96572985D01*
X138537209Y-96361536D01*
X138537208Y-96361531D01*
X138537208Y-96361526D01*
X138487298Y-96155796D01*
X138399356Y-95963229D01*
X138399353Y-95963225D01*
X138399351Y-95963221D01*
X138276564Y-95790791D01*
X138276555Y-95790781D01*
X138189384Y-95707664D01*
X138123346Y-95644697D01*
X138123343Y-95644695D01*
X138123340Y-95644692D01*
X138093195Y-95625319D01*
X138046702Y-95571664D01*
X138036599Y-95501389D01*
X138066092Y-95436809D01*
X138083429Y-95420279D01*
X138203431Y-95325909D01*
X138203434Y-95325906D01*
X138261583Y-95258799D01*
X138342065Y-95165918D01*
X138447913Y-94982582D01*
X138517153Y-94782527D01*
X138547281Y-94572984D01*
X138542233Y-94467014D01*
X138537209Y-94361536D01*
X138537208Y-94361531D01*
X138537208Y-94361526D01*
X138487298Y-94155796D01*
X138399356Y-93963229D01*
X138399353Y-93963225D01*
X138399351Y-93963221D01*
X138276564Y-93790791D01*
X138276550Y-93790775D01*
X138237656Y-93753690D01*
X138202158Y-93692206D01*
X138205536Y-93621289D01*
X138246718Y-93563457D01*
X138312629Y-93537071D01*
X138324606Y-93536500D01*
X141036762Y-93536500D01*
X141104883Y-93556502D01*
X141125857Y-93573405D01*
X142089595Y-94537143D01*
X142123621Y-94599455D01*
X142126500Y-94626238D01*
X142126500Y-94920544D01*
X142137112Y-95024425D01*
X142192885Y-95192738D01*
X142285970Y-95343652D01*
X142285975Y-95343658D01*
X142411341Y-95469024D01*
X142411347Y-95469029D01*
X142411348Y-95469030D01*
X142463804Y-95501385D01*
X142511281Y-95554170D01*
X142522684Y-95624245D01*
X142494392Y-95689360D01*
X142475549Y-95707664D01*
X142466916Y-95714453D01*
X142466908Y-95714460D01*
X142328343Y-95874374D01*
X142328342Y-95874375D01*
X142222545Y-96057622D01*
X142222541Y-96057631D01*
X142153337Y-96257584D01*
X142153335Y-96257590D01*
X142152126Y-96266000D01*
X143234122Y-96266000D01*
X143191722Y-96312059D01*
X143141449Y-96426670D01*
X143131114Y-96551395D01*
X143161837Y-96672719D01*
X143228008Y-96774000D01*
X142156480Y-96774000D01*
X142183175Y-96884038D01*
X142183177Y-96884045D01*
X142271077Y-97076515D01*
X142271079Y-97076519D01*
X142393821Y-97248887D01*
X142393822Y-97248888D01*
X142546964Y-97394909D01*
X142546965Y-97394910D01*
X142724975Y-97509308D01*
X142724980Y-97509311D01*
X142921414Y-97587952D01*
X142921420Y-97587953D01*
X143129194Y-97627999D01*
X143129203Y-97628000D01*
X143256000Y-97628000D01*
X143256000Y-96797503D01*
X143329052Y-96854363D01*
X143447424Y-96895000D01*
X143541073Y-96895000D01*
X143633446Y-96879586D01*
X143743514Y-96820019D01*
X143764000Y-96797765D01*
X143764000Y-97628000D01*
X143837779Y-97628000D01*
X143837800Y-97627998D01*
X143995633Y-97612927D01*
X143995648Y-97612924D01*
X144198677Y-97553310D01*
X144386754Y-97456349D01*
X144553085Y-97325544D01*
X144553091Y-97325539D01*
X144691656Y-97165625D01*
X144691657Y-97165624D01*
X144797454Y-96982377D01*
X144797458Y-96982368D01*
X144866662Y-96782415D01*
X144866664Y-96782409D01*
X144867873Y-96774000D01*
X143785878Y-96774000D01*
X143828278Y-96727941D01*
X143878551Y-96613330D01*
X143888886Y-96488605D01*
X143858163Y-96367281D01*
X143791992Y-96266000D01*
X144863519Y-96266000D01*
X144863519Y-96265999D01*
X144836824Y-96155961D01*
X144836822Y-96155954D01*
X144748922Y-95963484D01*
X144748920Y-95963480D01*
X144626178Y-95791112D01*
X144626177Y-95791111D01*
X144532379Y-95701674D01*
X144496881Y-95640189D01*
X144500259Y-95569273D01*
X144541441Y-95511441D01*
X144553173Y-95503249D01*
X144608652Y-95469030D01*
X144734030Y-95343652D01*
X144827115Y-95192738D01*
X144882887Y-95024426D01*
X144893500Y-94920545D01*
X144893499Y-94119456D01*
X144887628Y-94061989D01*
X144882887Y-94015574D01*
X144865542Y-93963229D01*
X144827115Y-93847262D01*
X144734030Y-93696348D01*
X144734029Y-93696347D01*
X144734024Y-93696341D01*
X144608658Y-93570975D01*
X144608652Y-93570970D01*
X144608652Y-93570969D01*
X144457738Y-93477885D01*
X144373581Y-93449998D01*
X144289427Y-93422113D01*
X144289420Y-93422112D01*
X144185553Y-93411500D01*
X144185545Y-93411500D01*
X143891238Y-93411500D01*
X143823117Y-93391498D01*
X143802143Y-93374595D01*
X143053459Y-92625911D01*
X142266270Y-91838722D01*
X142262126Y-91834149D01*
X142232252Y-91797748D01*
X142134444Y-91717480D01*
X142077469Y-91670722D01*
X142077467Y-91670721D01*
X142077466Y-91670720D01*
X141900883Y-91576334D01*
X141900877Y-91576332D01*
X141867521Y-91566213D01*
X141709269Y-91518208D01*
X141709266Y-91518207D01*
X141709261Y-91518206D01*
X141609721Y-91508403D01*
X141510002Y-91498581D01*
X141509998Y-91498581D01*
X141463145Y-91503196D01*
X141456966Y-91503500D01*
X138185000Y-91503500D01*
X138118855Y-91484742D01*
X138107738Y-91477885D01*
X137939427Y-91422113D01*
X137939420Y-91422112D01*
X137835553Y-91411500D01*
X136484455Y-91411500D01*
X136380574Y-91422112D01*
X136254710Y-91463819D01*
X136212262Y-91477885D01*
X136212260Y-91477885D01*
X136212260Y-91477886D01*
X136201145Y-91484742D01*
X136135000Y-91503500D01*
X135762500Y-91503500D01*
X135694379Y-91483498D01*
X135647886Y-91429842D01*
X135636500Y-91377500D01*
X135636500Y-82603028D01*
X135636804Y-82596849D01*
X135641418Y-82550002D01*
X135641418Y-82549996D01*
X135621793Y-82350738D01*
X135621793Y-82350736D01*
X135621792Y-82350733D01*
X135621792Y-82350731D01*
X135563667Y-82159120D01*
X135541294Y-82117264D01*
X135469279Y-81982533D01*
X135469278Y-81982531D01*
X135342252Y-81827748D01*
X135187469Y-81700722D01*
X135187467Y-81700721D01*
X135187466Y-81700720D01*
X135010883Y-81606334D01*
X135010877Y-81606332D01*
X134977521Y-81596213D01*
X134819269Y-81548208D01*
X134819266Y-81548207D01*
X134819261Y-81548206D01*
X134669934Y-81533500D01*
X134620002Y-81528582D01*
X134619998Y-81528582D01*
X134573151Y-81533196D01*
X134566972Y-81533500D01*
X134299422Y-81533500D01*
X134231301Y-81513498D01*
X134184808Y-81459842D01*
X134174704Y-81389568D01*
X134204198Y-81324988D01*
X134210315Y-81318416D01*
X135009921Y-80518809D01*
X135022383Y-80508827D01*
X135022198Y-80508603D01*
X135028300Y-80503554D01*
X135028303Y-80503553D01*
X135075764Y-80453010D01*
X135077110Y-80451620D01*
X135097638Y-80431094D01*
X135101962Y-80425519D01*
X135105793Y-80421033D01*
X135138217Y-80386506D01*
X135148023Y-80368667D01*
X135158870Y-80352153D01*
X135171349Y-80336067D01*
X135190149Y-80292620D01*
X135192761Y-80287290D01*
X135215567Y-80245806D01*
X135215569Y-80245803D01*
X135220632Y-80226079D01*
X135227031Y-80207391D01*
X135235117Y-80188708D01*
X135242522Y-80141951D01*
X135243727Y-80136132D01*
X135255499Y-80090288D01*
X135255500Y-80090281D01*
X135255500Y-80069934D01*
X135257051Y-80050223D01*
X135260235Y-80030121D01*
X135255780Y-79982988D01*
X135255500Y-79977055D01*
X135255500Y-78824069D01*
X135257252Y-78808201D01*
X135256962Y-78808174D01*
X135257708Y-78800281D01*
X135255531Y-78730998D01*
X135255500Y-78729020D01*
X135255500Y-78700018D01*
X135255500Y-78700017D01*
X135254616Y-78693026D01*
X135254152Y-78687128D01*
X135252665Y-78639795D01*
X135246984Y-78620243D01*
X135242977Y-78600895D01*
X135240427Y-78580701D01*
X135222995Y-78536673D01*
X135221081Y-78531083D01*
X135207869Y-78485607D01*
X135197507Y-78468087D01*
X135188809Y-78450331D01*
X135186872Y-78445438D01*
X135181319Y-78431412D01*
X135181317Y-78431410D01*
X135181317Y-78431408D01*
X135163632Y-78407068D01*
X135153489Y-78393107D01*
X135150234Y-78388151D01*
X135126133Y-78347400D01*
X135126129Y-78347395D01*
X135111746Y-78333012D01*
X135098905Y-78317978D01*
X135086942Y-78301513D01*
X135086941Y-78301512D01*
X135079594Y-78295435D01*
X135050452Y-78271326D01*
X135046079Y-78267346D01*
X133858815Y-77080082D01*
X133848831Y-77067620D01*
X133848607Y-77067806D01*
X133843554Y-77061698D01*
X133793012Y-77014236D01*
X133791622Y-77012889D01*
X133781344Y-77002611D01*
X133771099Y-76992365D01*
X133771094Y-76992361D01*
X133765520Y-76988037D01*
X133761015Y-76984189D01*
X133726506Y-76951783D01*
X133726499Y-76951778D01*
X133708673Y-76941978D01*
X133692147Y-76931123D01*
X133676066Y-76918649D01*
X133676067Y-76918649D01*
X133632612Y-76899845D01*
X133627279Y-76897232D01*
X133585805Y-76874432D01*
X133585803Y-76874431D01*
X133566085Y-76869368D01*
X133547382Y-76862964D01*
X133528706Y-76854882D01*
X133481941Y-76847475D01*
X133476135Y-76846273D01*
X133460861Y-76842351D01*
X133430286Y-76834500D01*
X133430282Y-76834500D01*
X133409934Y-76834500D01*
X133390224Y-76832949D01*
X133386235Y-76832317D01*
X133370117Y-76829764D01*
X133365162Y-76830233D01*
X133295461Y-76816728D01*
X133247825Y-76773707D01*
X133236573Y-76756485D01*
X133199670Y-76700000D01*
X133155724Y-76632734D01*
X133155720Y-76632729D01*
X133003237Y-76467091D01*
X132921382Y-76403381D01*
X132825576Y-76328811D01*
X132791792Y-76310528D01*
X132741402Y-76260516D01*
X132726050Y-76191199D01*
X132750610Y-76124586D01*
X132791793Y-76088901D01*
X132825300Y-76070767D01*
X132825301Y-76070767D01*
X133002902Y-75932534D01*
X133155325Y-75766958D01*
X133278419Y-75578548D01*
X133368820Y-75372456D01*
X133368823Y-75372449D01*
X133416544Y-75184000D01*
X132511116Y-75184000D01*
X132539493Y-75139844D01*
X132580000Y-75001889D01*
X132580000Y-74858111D01*
X132539493Y-74720156D01*
X132511116Y-74676000D01*
X133416544Y-74676000D01*
X133416544Y-74675999D01*
X133368823Y-74487550D01*
X133368820Y-74487543D01*
X133278419Y-74281451D01*
X133155325Y-74093041D01*
X133002902Y-73927465D01*
X132825301Y-73789232D01*
X132825300Y-73789231D01*
X132791791Y-73771097D01*
X132748133Y-73727765D01*
X140385788Y-73727765D01*
X140415412Y-73997014D01*
X140483928Y-74259090D01*
X140589869Y-74508389D01*
X140589870Y-74508390D01*
X140730982Y-74739610D01*
X140904255Y-74947820D01*
X140904257Y-74947822D01*
X140904259Y-74947824D01*
X141054117Y-75082097D01*
X141105998Y-75128582D01*
X141331910Y-75278044D01*
X141577176Y-75393020D01*
X141836569Y-75471060D01*
X141836572Y-75471060D01*
X141836574Y-75471061D01*
X142104557Y-75510500D01*
X142104561Y-75510500D01*
X142307631Y-75510500D01*
X142510156Y-75495677D01*
X142510160Y-75495676D01*
X142510161Y-75495676D01*
X142620665Y-75471060D01*
X142774553Y-75436780D01*
X143027558Y-75340014D01*
X143263777Y-75207441D01*
X143478177Y-75041888D01*
X143666186Y-74846881D01*
X143823799Y-74626579D01*
X143837875Y-74599202D01*
X143947656Y-74385675D01*
X143947657Y-74385672D01*
X144035118Y-74129305D01*
X144059718Y-73996118D01*
X144084318Y-73862941D01*
X144084319Y-73862930D01*
X144087012Y-73789232D01*
X144094212Y-73592235D01*
X144072280Y-73392906D01*
X144064587Y-73322985D01*
X143996071Y-73060909D01*
X143890130Y-72811610D01*
X143889008Y-72809772D01*
X143749018Y-72580390D01*
X143575745Y-72372180D01*
X143575741Y-72372177D01*
X143575740Y-72372175D01*
X143374012Y-72191427D01*
X143374002Y-72191418D01*
X143148090Y-72041956D01*
X142902824Y-71926980D01*
X142744606Y-71879379D01*
X142643425Y-71848938D01*
X142375442Y-71809500D01*
X142375439Y-71809500D01*
X142172369Y-71809500D01*
X141969839Y-71824323D01*
X141969838Y-71824323D01*
X141705456Y-71883217D01*
X141705441Y-71883222D01*
X141452441Y-71979986D01*
X141216229Y-72112555D01*
X141216225Y-72112557D01*
X141001818Y-72278116D01*
X140813815Y-72473117D01*
X140813810Y-72473123D01*
X140656203Y-72693417D01*
X140656196Y-72693427D01*
X140532343Y-72934324D01*
X140532342Y-72934327D01*
X140444883Y-73190689D01*
X140444880Y-73190702D01*
X140395681Y-73457058D01*
X140395680Y-73457069D01*
X140385788Y-73727765D01*
X132748133Y-73727765D01*
X132741401Y-73721083D01*
X132726050Y-73651766D01*
X132750612Y-73585153D01*
X132791790Y-73549472D01*
X132825576Y-73531189D01*
X133003240Y-73392906D01*
X133155722Y-73227268D01*
X133278860Y-73038791D01*
X133369296Y-72832616D01*
X133424564Y-72614368D01*
X133443156Y-72390000D01*
X133424564Y-72165632D01*
X133369296Y-71947384D01*
X133278860Y-71741209D01*
X133250117Y-71697215D01*
X133155724Y-71552734D01*
X133155720Y-71552729D01*
X133003237Y-71387091D01*
X132921382Y-71323381D01*
X132825576Y-71248811D01*
X132627574Y-71141658D01*
X132627572Y-71141657D01*
X132627571Y-71141656D01*
X132414639Y-71068557D01*
X132414630Y-71068555D01*
X132370476Y-71061187D01*
X132192569Y-71031500D01*
X131967431Y-71031500D01*
X131819210Y-71056233D01*
X131745369Y-71068555D01*
X131745360Y-71068557D01*
X131532428Y-71141656D01*
X131532426Y-71141658D01*
X131334426Y-71248810D01*
X131334424Y-71248811D01*
X131156762Y-71387091D01*
X131004279Y-71552729D01*
X130909882Y-71697215D01*
X130855878Y-71743303D01*
X130808374Y-71754236D01*
X130802581Y-71754419D01*
X130800990Y-71754469D01*
X130799025Y-71754500D01*
X130770017Y-71754500D01*
X130763021Y-71755382D01*
X130757114Y-71755847D01*
X130709796Y-71757334D01*
X130709793Y-71757335D01*
X130690244Y-71763014D01*
X130670893Y-71767021D01*
X130650704Y-71769572D01*
X130650703Y-71769572D01*
X130606681Y-71787000D01*
X130601067Y-71788922D01*
X130555611Y-71802129D01*
X130555604Y-71802132D01*
X130538083Y-71812493D01*
X130520343Y-71821184D01*
X130501411Y-71828680D01*
X130463112Y-71856506D01*
X130458152Y-71859764D01*
X130417400Y-71883867D01*
X130403010Y-71898256D01*
X130387986Y-71911088D01*
X130371513Y-71923057D01*
X130341323Y-71959549D01*
X130337327Y-71963940D01*
X124233672Y-78067595D01*
X124171360Y-78101621D01*
X124144577Y-78104500D01*
X123195731Y-78104500D01*
X123127610Y-78084498D01*
X123090248Y-78047415D01*
X122995724Y-77902734D01*
X122995720Y-77902729D01*
X122843237Y-77737091D01*
X122753545Y-77667281D01*
X122665576Y-77598811D01*
X122631792Y-77580528D01*
X122581402Y-77530516D01*
X122566050Y-77461199D01*
X122590610Y-77394586D01*
X122631793Y-77358901D01*
X122665300Y-77340767D01*
X122665301Y-77340767D01*
X122842902Y-77202534D01*
X122995325Y-77036958D01*
X123118419Y-76848548D01*
X123208820Y-76642456D01*
X123208823Y-76642449D01*
X123256544Y-76454000D01*
X122351116Y-76454000D01*
X122379493Y-76409844D01*
X122420000Y-76271889D01*
X122420000Y-76128111D01*
X122379493Y-75990156D01*
X122351116Y-75946000D01*
X123256544Y-75946000D01*
X123256544Y-75945999D01*
X123208823Y-75757550D01*
X123208820Y-75757543D01*
X123118419Y-75551451D01*
X122995325Y-75363041D01*
X122842902Y-75197465D01*
X122665301Y-75059232D01*
X122665300Y-75059231D01*
X122467371Y-74952117D01*
X122467369Y-74952116D01*
X122254512Y-74879043D01*
X122254501Y-74879040D01*
X122174000Y-74865606D01*
X122174000Y-75766325D01*
X122062315Y-75715320D01*
X121955763Y-75700000D01*
X121884237Y-75700000D01*
X121777685Y-75715320D01*
X121665999Y-75766325D01*
X121665999Y-74865606D01*
X121585498Y-74879040D01*
X121585487Y-74879043D01*
X121372630Y-74952116D01*
X121372628Y-74952117D01*
X121174699Y-75059231D01*
X121174698Y-75059232D01*
X120997097Y-75197465D01*
X120844674Y-75363041D01*
X120721580Y-75551451D01*
X120631179Y-75757543D01*
X120631176Y-75757550D01*
X120583455Y-75945999D01*
X120583456Y-75946000D01*
X121488884Y-75946000D01*
X121460507Y-75990156D01*
X121420000Y-76128111D01*
X121420000Y-76271889D01*
X121460507Y-76409844D01*
X121488884Y-76454000D01*
X120583455Y-76454000D01*
X120631176Y-76642449D01*
X120631179Y-76642456D01*
X120721580Y-76848548D01*
X120844674Y-77036958D01*
X120997097Y-77202534D01*
X121174698Y-77340767D01*
X121174704Y-77340771D01*
X121208207Y-77358902D01*
X121258597Y-77408915D01*
X121273949Y-77478232D01*
X121249388Y-77544845D01*
X121208207Y-77580528D01*
X121174430Y-77598807D01*
X121174424Y-77598811D01*
X120996762Y-77737091D01*
X120844279Y-77902729D01*
X120844278Y-77902731D01*
X120832726Y-77920414D01*
X120778723Y-77966503D01*
X120727242Y-77977500D01*
X114364735Y-77977500D01*
X114346475Y-77976170D01*
X114342260Y-77975552D01*
X114322328Y-77972633D01*
X114322326Y-77972633D01*
X114322325Y-77972633D01*
X114302343Y-77974381D01*
X114269439Y-77977260D01*
X114263955Y-77977500D01*
X114255586Y-77977500D01*
X114223380Y-77981262D01*
X114221562Y-77981448D01*
X114144759Y-77988168D01*
X114137574Y-77989652D01*
X114137562Y-77989594D01*
X114130083Y-77991252D01*
X114130097Y-77991310D01*
X114122950Y-77993003D01*
X114050481Y-78019379D01*
X114048752Y-78019980D01*
X113975563Y-78044233D01*
X113968915Y-78047334D01*
X113968890Y-78047280D01*
X113961988Y-78050622D01*
X113962015Y-78050674D01*
X113955468Y-78053962D01*
X113955463Y-78053965D01*
X113955461Y-78053966D01*
X113934739Y-78067595D01*
X113891026Y-78096344D01*
X113889482Y-78097328D01*
X113823852Y-78137810D01*
X113818094Y-78142363D01*
X113818057Y-78142316D01*
X113812122Y-78147150D01*
X113812161Y-78147196D01*
X113806540Y-78151913D01*
X113753616Y-78208007D01*
X113752340Y-78209320D01*
X112941067Y-79020595D01*
X112878754Y-79054620D01*
X112851971Y-79057500D01*
X110352094Y-79057500D01*
X110283973Y-79037498D01*
X110265144Y-79022691D01*
X110183345Y-78944696D01*
X110183341Y-78944693D01*
X110152750Y-78925033D01*
X110106257Y-78871377D01*
X110096154Y-78801103D01*
X110125647Y-78736523D01*
X110142984Y-78719993D01*
X110263081Y-78625548D01*
X110263091Y-78625539D01*
X110401656Y-78465625D01*
X110401657Y-78465624D01*
X110507454Y-78282377D01*
X110507458Y-78282368D01*
X110576662Y-78082415D01*
X110576664Y-78082409D01*
X110577873Y-78074000D01*
X109495878Y-78074000D01*
X109538278Y-78027941D01*
X109588551Y-77913330D01*
X109598886Y-77788605D01*
X109568163Y-77667281D01*
X109501992Y-77566000D01*
X110573519Y-77566000D01*
X110573519Y-77565999D01*
X110546824Y-77455961D01*
X110546822Y-77455954D01*
X110458922Y-77263484D01*
X110458920Y-77263480D01*
X110336178Y-77091112D01*
X110336177Y-77091111D01*
X110183035Y-76945090D01*
X110183034Y-76945089D01*
X110005024Y-76830691D01*
X110005019Y-76830688D01*
X109808585Y-76752047D01*
X109808579Y-76752046D01*
X109600805Y-76712000D01*
X109474000Y-76712000D01*
X109474000Y-77542496D01*
X109400948Y-77485637D01*
X109282576Y-77445000D01*
X109188927Y-77445000D01*
X109096554Y-77460414D01*
X108986486Y-77519981D01*
X108966000Y-77542234D01*
X108966000Y-76712000D01*
X108892221Y-76712000D01*
X108892199Y-76712001D01*
X108734366Y-76727072D01*
X108734351Y-76727075D01*
X108531322Y-76786689D01*
X108343245Y-76883650D01*
X108176914Y-77014455D01*
X108176908Y-77014460D01*
X108038343Y-77174374D01*
X108038342Y-77174375D01*
X107932545Y-77357622D01*
X107932541Y-77357631D01*
X107863337Y-77557584D01*
X107863335Y-77557590D01*
X107862126Y-77566000D01*
X108944122Y-77566000D01*
X108901722Y-77612059D01*
X108851449Y-77726670D01*
X108841114Y-77851395D01*
X108871837Y-77972719D01*
X108938008Y-78074000D01*
X107866480Y-78074000D01*
X107893175Y-78184038D01*
X107893177Y-78184045D01*
X107981077Y-78376515D01*
X107981079Y-78376519D01*
X108103821Y-78548887D01*
X108103822Y-78548888D01*
X108256962Y-78694907D01*
X108287217Y-78714350D01*
X108333711Y-78768005D01*
X108343817Y-78838279D01*
X108314325Y-78902860D01*
X108296988Y-78919392D01*
X108176565Y-79014094D01*
X108172224Y-79018234D01*
X108171404Y-79017374D01*
X108116914Y-79052395D01*
X108081413Y-79057500D01*
X102568854Y-79057500D01*
X102500733Y-79037498D01*
X102483159Y-79022653D01*
X102482670Y-79023190D01*
X102361552Y-78912777D01*
X102324685Y-78852103D01*
X102326474Y-78781129D01*
X102361552Y-78726547D01*
X102477991Y-78620398D01*
X102610114Y-78445438D01*
X102707839Y-78249179D01*
X102707841Y-78249174D01*
X102757683Y-78074000D01*
X101911686Y-78074000D01*
X101927641Y-78058045D01*
X101985165Y-77945148D01*
X102004986Y-77820000D01*
X101985165Y-77694852D01*
X101927641Y-77581955D01*
X101911686Y-77566000D01*
X102757683Y-77566000D01*
X102707841Y-77390825D01*
X102707839Y-77390820D01*
X102610114Y-77194561D01*
X102477994Y-77019604D01*
X102315973Y-76871902D01*
X102129567Y-76756485D01*
X102129560Y-76756482D01*
X101925136Y-76677287D01*
X101854000Y-76663989D01*
X101854000Y-77508314D01*
X101838045Y-77492359D01*
X101725148Y-77434835D01*
X101631481Y-77420000D01*
X101568519Y-77420000D01*
X101474852Y-77434835D01*
X101361955Y-77492359D01*
X101346000Y-77508314D01*
X101346000Y-76663989D01*
X101274863Y-76677287D01*
X101070439Y-76756482D01*
X101070432Y-76756485D01*
X100884026Y-76871902D01*
X100722005Y-77019604D01*
X100589885Y-77194561D01*
X100492160Y-77390820D01*
X100492158Y-77390825D01*
X100442317Y-77566000D01*
X101288314Y-77566000D01*
X101272359Y-77581955D01*
X101214835Y-77694852D01*
X101195014Y-77820000D01*
X101214835Y-77945148D01*
X101272359Y-78058045D01*
X101288314Y-78074000D01*
X100442317Y-78074000D01*
X100492158Y-78249174D01*
X100492160Y-78249179D01*
X100589885Y-78445438D01*
X100722005Y-78620395D01*
X100838448Y-78726547D01*
X100875314Y-78787221D01*
X100873525Y-78858196D01*
X100838448Y-78912777D01*
X100721634Y-79019266D01*
X100589458Y-79194297D01*
X100491691Y-79390639D01*
X100491688Y-79390646D01*
X100431667Y-79601602D01*
X100431667Y-79601606D01*
X100411430Y-79819995D01*
X100411430Y-79820004D01*
X100431667Y-80038393D01*
X100431667Y-80038397D01*
X100491688Y-80249353D01*
X100491690Y-80249358D01*
X100491691Y-80249361D01*
X100589457Y-80445701D01*
X100589458Y-80445702D01*
X100721634Y-80620733D01*
X100838077Y-80726885D01*
X100874943Y-80787559D01*
X100873154Y-80858534D01*
X100838077Y-80913115D01*
X100721634Y-81019266D01*
X100589458Y-81194297D01*
X100491691Y-81390639D01*
X100491688Y-81390646D01*
X100431667Y-81601602D01*
X100431667Y-81601606D01*
X100411430Y-81819995D01*
X100411430Y-81820004D01*
X100431667Y-82038393D01*
X100431667Y-82038397D01*
X100491688Y-82249353D01*
X100491690Y-82249358D01*
X100491691Y-82249361D01*
X100589457Y-82445701D01*
X100589458Y-82445702D01*
X100665312Y-82546150D01*
X100690402Y-82612566D01*
X100675602Y-82682003D01*
X100640271Y-82722950D01*
X100561738Y-82781738D01*
X100474112Y-82898792D01*
X100474110Y-82898797D01*
X100423011Y-83035795D01*
X100423009Y-83035803D01*
X100416500Y-83096350D01*
X100416500Y-84543649D01*
X100423009Y-84604196D01*
X100423011Y-84604204D01*
X100474110Y-84741202D01*
X100474112Y-84741207D01*
X100561738Y-84858261D01*
X100678792Y-84945887D01*
X100678794Y-84945888D01*
X100678796Y-84945889D01*
X100737875Y-84967924D01*
X100815795Y-84996988D01*
X100815803Y-84996990D01*
X100876350Y-85003499D01*
X100876355Y-85003499D01*
X100876362Y-85003500D01*
X100876368Y-85003500D01*
X102323632Y-85003500D01*
X102323638Y-85003500D01*
X102323645Y-85003499D01*
X102323649Y-85003499D01*
X102384196Y-84996990D01*
X102384199Y-84996989D01*
X102384201Y-84996989D01*
X102521204Y-84945889D01*
X102544435Y-84928499D01*
X102638261Y-84858261D01*
X102725887Y-84741207D01*
X102725889Y-84741203D01*
X102725890Y-84741202D01*
X102754510Y-84664467D01*
X102797058Y-84607631D01*
X102863578Y-84582821D01*
X102872566Y-84582500D01*
X107887928Y-84582500D01*
X107956049Y-84602502D01*
X107991068Y-84638174D01*
X107991420Y-84637897D01*
X107994004Y-84641165D01*
X107995168Y-84642351D01*
X107995971Y-84643653D01*
X107995975Y-84643658D01*
X108121341Y-84769024D01*
X108121347Y-84769029D01*
X108121348Y-84769030D01*
X108272262Y-84862115D01*
X108440574Y-84917887D01*
X108544455Y-84928500D01*
X109895544Y-84928499D01*
X109999426Y-84917887D01*
X110167738Y-84862115D01*
X110318652Y-84769030D01*
X110444030Y-84643652D01*
X110444833Y-84642350D01*
X110445615Y-84641646D01*
X110448580Y-84637897D01*
X110449220Y-84638403D01*
X110497619Y-84594874D01*
X110552072Y-84582500D01*
X120435500Y-84582500D01*
X120503621Y-84602502D01*
X120550114Y-84656158D01*
X120561500Y-84708500D01*
X120561500Y-84718649D01*
X120568009Y-84779196D01*
X120568011Y-84779204D01*
X120619110Y-84916202D01*
X120619112Y-84916207D01*
X120706738Y-85033261D01*
X120823792Y-85120887D01*
X120823794Y-85120888D01*
X120823796Y-85120889D01*
X120882875Y-85142924D01*
X120960795Y-85171988D01*
X120960803Y-85171990D01*
X121021350Y-85178499D01*
X121021355Y-85178499D01*
X121021362Y-85178500D01*
X121021368Y-85178500D01*
X122818632Y-85178500D01*
X122818638Y-85178500D01*
X122818645Y-85178499D01*
X122818649Y-85178499D01*
X122879196Y-85171990D01*
X122879199Y-85171989D01*
X122879201Y-85171989D01*
X123016204Y-85120889D01*
X123133261Y-85033261D01*
X123160415Y-84996988D01*
X123220887Y-84916207D01*
X123220887Y-84916206D01*
X123220889Y-84916204D01*
X123271989Y-84779201D01*
X123273083Y-84769030D01*
X123278499Y-84718649D01*
X123278500Y-84718632D01*
X123278500Y-84581500D01*
X123298502Y-84513379D01*
X123352158Y-84466886D01*
X123404500Y-84455500D01*
X128185930Y-84455500D01*
X128201798Y-84457252D01*
X128201826Y-84456962D01*
X128209718Y-84457708D01*
X128209718Y-84457707D01*
X128209719Y-84457708D01*
X128233459Y-84456962D01*
X128279001Y-84455531D01*
X128280979Y-84455500D01*
X128309983Y-84455500D01*
X128316969Y-84454617D01*
X128322873Y-84454152D01*
X128370205Y-84452665D01*
X128389751Y-84446985D01*
X128409102Y-84442978D01*
X128429299Y-84440427D01*
X128473332Y-84422992D01*
X128478915Y-84421081D01*
X128524393Y-84407869D01*
X128541907Y-84397510D01*
X128559656Y-84388814D01*
X128578588Y-84381319D01*
X128616903Y-84353480D01*
X128621840Y-84350237D01*
X128662598Y-84326134D01*
X128676984Y-84311747D01*
X128692018Y-84298906D01*
X128708487Y-84286942D01*
X128738678Y-84250446D01*
X128742646Y-84246084D01*
X130503347Y-82485383D01*
X130565657Y-82451359D01*
X130636472Y-82456424D01*
X130693308Y-82498971D01*
X130718010Y-82564074D01*
X130721546Y-82606739D01*
X130733682Y-82753203D01*
X130735437Y-82774375D01*
X130790702Y-82992612D01*
X130790703Y-82992613D01*
X130790704Y-82992616D01*
X130881140Y-83198791D01*
X130881141Y-83198793D01*
X131004275Y-83387265D01*
X131004280Y-83387270D01*
X131147475Y-83542820D01*
X131178896Y-83606485D01*
X131170909Y-83677031D01*
X131126051Y-83732060D01*
X131098807Y-83746213D01*
X130983797Y-83789110D01*
X130983792Y-83789112D01*
X130866738Y-83876738D01*
X130779112Y-83993792D01*
X130779110Y-83993797D01*
X130728011Y-84130795D01*
X130728009Y-84130803D01*
X130721500Y-84191350D01*
X130721500Y-84958762D01*
X130701498Y-85026883D01*
X130684595Y-85047857D01*
X127885857Y-87846595D01*
X127823545Y-87880621D01*
X127796762Y-87883500D01*
X116893028Y-87883500D01*
X116886849Y-87883196D01*
X116840002Y-87878582D01*
X116839998Y-87878582D01*
X116793151Y-87883196D01*
X116786972Y-87883500D01*
X109273028Y-87883500D01*
X109266849Y-87883196D01*
X109220002Y-87878582D01*
X109219998Y-87878582D01*
X109173151Y-87883196D01*
X109166972Y-87883500D01*
X104193028Y-87883500D01*
X104186849Y-87883196D01*
X104140002Y-87878582D01*
X104139998Y-87878582D01*
X104093151Y-87883196D01*
X104086972Y-87883500D01*
X97697265Y-87883500D01*
X97629144Y-87863498D01*
X97619117Y-87856337D01*
X97618658Y-87855974D01*
X97618652Y-87855970D01*
X97467738Y-87762885D01*
X97383582Y-87734998D01*
X97299427Y-87707113D01*
X97299420Y-87707112D01*
X97195553Y-87696500D01*
X95844455Y-87696500D01*
X95740574Y-87707112D01*
X95572261Y-87762885D01*
X95421347Y-87855970D01*
X95421341Y-87855975D01*
X95295975Y-87981341D01*
X95295970Y-87981347D01*
X95202885Y-88132262D01*
X95147113Y-88300572D01*
X95147112Y-88300579D01*
X95136500Y-88404446D01*
X95136500Y-89205544D01*
X95147112Y-89309425D01*
X95202885Y-89477738D01*
X95295970Y-89628652D01*
X95295975Y-89628658D01*
X95421341Y-89754024D01*
X95421347Y-89754029D01*
X95421348Y-89754030D01*
X95473350Y-89786105D01*
X95520828Y-89838891D01*
X95532231Y-89908966D01*
X95503938Y-89974082D01*
X95485096Y-89992384D01*
X95476576Y-89999084D01*
X95476556Y-89999103D01*
X95337938Y-90159077D01*
X95337930Y-90159088D01*
X95232089Y-90342412D01*
X95232086Y-90342419D01*
X95162848Y-90542469D01*
X95162845Y-90542480D01*
X95132718Y-90752014D01*
X92710500Y-90752014D01*
X92710500Y-73727911D01*
X94661780Y-73727911D01*
X94691468Y-73997742D01*
X94760132Y-74260386D01*
X94866304Y-74510227D01*
X95007716Y-74741940D01*
X95007721Y-74741946D01*
X95181366Y-74950602D01*
X95181370Y-74950606D01*
X95383535Y-75131748D01*
X95383539Y-75131750D01*
X95383546Y-75131757D01*
X95604660Y-75278044D01*
X95609949Y-75281543D01*
X95855740Y-75396766D01*
X95855742Y-75396766D01*
X95855743Y-75396767D01*
X96115697Y-75474975D01*
X96115700Y-75474975D01*
X96115702Y-75474976D01*
X96384264Y-75514500D01*
X96384268Y-75514500D01*
X96587780Y-75514500D01*
X96587781Y-75514500D01*
X96790740Y-75499645D01*
X97055709Y-75440621D01*
X97309261Y-75343646D01*
X97545991Y-75210786D01*
X97760853Y-75044875D01*
X97949269Y-74849447D01*
X98107223Y-74628668D01*
X98231348Y-74387244D01*
X98318998Y-74130320D01*
X98368306Y-73863371D01*
X98378220Y-73592089D01*
X98348611Y-73322985D01*
X98348531Y-73322257D01*
X98314135Y-73190689D01*
X98279868Y-73059616D01*
X98271018Y-73038791D01*
X98183403Y-72832616D01*
X98173697Y-72809776D01*
X98102684Y-72693417D01*
X98032283Y-72578059D01*
X98032281Y-72578056D01*
X97858632Y-72369396D01*
X97858629Y-72369393D01*
X97656464Y-72188251D01*
X97656459Y-72188247D01*
X97656454Y-72188243D01*
X97430053Y-72038458D01*
X97430050Y-72038456D01*
X97184259Y-71923233D01*
X96924297Y-71845023D01*
X96655735Y-71805500D01*
X96655732Y-71805500D01*
X96452219Y-71805500D01*
X96436191Y-71806673D01*
X96249262Y-71820354D01*
X95984287Y-71879380D01*
X95984285Y-71879381D01*
X95730738Y-71976354D01*
X95494008Y-72109214D01*
X95279145Y-72275126D01*
X95279144Y-72275127D01*
X95090732Y-72470551D01*
X95090727Y-72470557D01*
X94932779Y-72691328D01*
X94932775Y-72691333D01*
X94808652Y-72932753D01*
X94721000Y-73189686D01*
X94671693Y-73456632D01*
X94661780Y-73727911D01*
X92710500Y-73727911D01*
X92710500Y-69976500D01*
X92730502Y-69908379D01*
X92784158Y-69861886D01*
X92836500Y-69850500D01*
X145923500Y-69850500D01*
X145991621Y-69870502D01*
G37*
%TD.AperFunction*%
%TD*%
M02*
